<?xml version="1.0" standalone="no"?>
<!DOCTYPE svg PUBLIC "-//W3C//DTD SVG 20010904//EN"
 "http://www.w3.org/TR/2001/REC-SVG-20010904/DTD/svg10.dtd">
<svg version="1.0" xmlns="http://www.w3.org/2000/svg"
 width="1100.000000pt" height="850.000000pt" viewBox="0 0 1100.000000 850.000000"
 preserveAspectRatio="xMidYMid meet">

<g transform="translate(0.000000,850.000000) scale(0.100000,-0.100000)"
fill="#000000" stroke="none">
<path d="M5310 5155 l-155 -155 2570 -2 2570 -3 160 157 160 158 -2575 0
-2575 0 -155 -155z"/>
<path d="M975 4626 c-141 -33 -260 -99 -366 -205 -108 -109 -172 -227 -204
-376 -49 -231 39 -486 224 -657 86 -79 157 -122 268 -162 85 -30 93 -31 253
-31 154 1 170 2 245 28 148 52 262 129 356 241 33 38 59 72 59 76 0 3 -73 47
-162 97 l-163 91 -37 -43 c-186 -211 -521 -166 -642 85 -26 56 -31 76 -31 145
0 69 5 89 32 147 39 82 100 145 179 184 54 26 68 29 164 29 99 0 110 -2 172
-33 43 -21 84 -51 115 -86 l49 -53 154 88 c85 49 160 90 165 92 16 6 -76 117
-148 178 -79 66 -153 108 -262 145 -69 23 -99 28 -220 30 -94 3 -160 -1 -200
-10z"/>
<path d="M8775 4625 c-154 -34 -252 -90 -371 -209 -104 -104 -159 -202 -194
-340 -51 -204 2 -425 147 -607 143 -179 358 -281 593 -282 127 0 213 19 324
72 164 77 282 194 361 356 54 111 75 194 75 306 0 323 -235 615 -564 699 -94
24 -276 26 -371 5z m338 -389 c117 -56 205 -179 215 -301 20 -254 -248 -449
-500 -364 -159 53 -250 175 -252 334 -1 70 3 88 30 145 70 146 195 222 359
217 74 -3 100 -8 148 -31z"/>
<path d="M2434 4612 c-5 -4 -15 -20 -23 -37 -11 -25 -527 -1236 -568 -1333
l-13 -32 201 2 201 3 43 105 43 105 300 3 299 2 45 -107 44 -108 202 -3 201
-2 -35 82 c-20 46 -153 358 -296 693 -143 336 -265 616 -271 623 -7 10 -54 12
-187 12 -97 -1 -181 -5 -186 -8z m276 -662 c45 -118 84 -221 87 -227 4 -10
-35 -13 -177 -13 -147 0 -181 3 -178 13 11 46 174 454 179 449 3 -4 43 -104
89 -222z"/>
<path d="M3550 3916 l0 -706 190 0 190 0 0 175 0 175 183 0 182 0 74 -170 c41
-94 78 -173 83 -176 6 -4 101 -7 211 -7 171 -1 201 2 199 14 -2 8 -44 105 -94
217 l-90 203 65 59 c80 74 122 138 153 235 57 181 9 388 -121 520 -68 68 -119
101 -206 133 l-74 27 -472 3 -473 3 0 -705z m853 373 c21 -5 54 -24 74 -42
114 -100 90 -277 -49 -348 -33 -17 -61 -19 -268 -19 l-230 0 0 210 0 210 218
0 c120 0 234 -5 255 -11z"/>
<path d="M5150 3916 l0 -706 190 0 190 0 0 174 0 174 263 4 c286 6 317 11 429
70 114 61 219 194 252 323 9 32 16 93 16 135 0 228 -131 415 -350 499 l-65 26
-462 3 -463 3 0 -705z m882 349 c125 -88 121 -271 -7 -350 l-48 -30 -224 -3
-223 -3 0 211 0 211 229 -3 229 -3 44 -30z"/>
<path d="M6690 3916 l0 -706 185 0 185 0 0 175 0 175 186 -2 185 -3 74 -169
c41 -92 76 -170 79 -173 6 -7 405 -7 412 -1 2 3 -38 101 -91 219 l-95 214 27
19 c46 32 120 114 148 164 48 86 68 160 68 257 2 235 -134 426 -362 509 -53
19 -83 21 -528 24 l-473 3 0 -705z m881 361 c64 -34 102 -93 107 -166 5 -73
-9 -118 -51 -161 -63 -65 -86 -70 -339 -70 l-228 0 0 210 0 210 233 0 c225 0
235 -1 278 -23z"/>
<path d="M9790 4585 c0 -9 9 -15 25 -15 24 0 25 -2 25 -75 0 -68 2 -75 20 -75
18 0 20 7 20 75 0 73 1 75 25 75 16 0 25 6 25 15 0 12 -14 15 -70 15 -56 0
-70 -3 -70 -15z"/>
<path d="M9960 4505 c0 -88 1 -95 20 -95 18 0 20 7 21 68 l0 67 26 -57 c20
-46 30 -58 48 -58 17 0 27 12 48 58 l25 57 1 -67 c1 -61 3 -68 21 -68 19 0 20
7 20 95 l0 95 -28 0 c-25 0 -32 -8 -57 -61 l-29 -61 -30 61 c-26 53 -34 61
-58 61 l-28 0 0 -95z"/>
</g>
</svg>
