<?xml version="1.0" standalone="no"?>
<!DOCTYPE svg PUBLIC "-//W3C//DTD SVG 20010904//EN"
 "http://www.w3.org/TR/2001/REC-SVG-20010904/DTD/svg10.dtd">
<svg version="1.0" xmlns="http://www.w3.org/2000/svg"
 width="600.000000pt" height="600.000000pt" viewBox="0 0 600.000000 600.000000"
 preserveAspectRatio="xMidYMid meet">

<g transform="translate(0.000000,600.000000) scale(0.100000,-0.100000)"
fill="#000000" stroke="none">
<path d="M530 3550 l0 -50 2470 0 2470 0 0 50 0 50 -2470 0 -2470 0 0 -50z"/>
<path d="M530 3000 l0 -460 223 0 c351 1 428 19 537 129 89 89 111 146 118
301 9 222 -59 360 -215 439 -85 42 -153 51 -415 51 l-248 0 0 -460z m461 167
c48 -32 69 -79 69 -157 -1 -121 -44 -174 -151 -187 l-49 -6 0 187 0 186 49 0
c33 0 58 -7 82 -23z"/>
<path d="M1974 3443 c3 -10 57 -209 121 -443 64 -234 118 -433 121 -443 5 -16
19 -17 162 -15 l157 3 50 212 c27 116 51 210 53 208 2 -2 27 -97 55 -212 l52
-208 154 -3 c85 -1 158 1 162 5 6 6 227 774 254 886 l7 27 -169 0 -170 0 -43
-210 c-24 -115 -47 -207 -50 -204 -3 3 -26 96 -51 207 l-46 202 -151 3 c-84 1
-152 0 -152 -3 0 -10 -81 -391 -87 -405 -5 -13 -32 105 -83 353 l-11 57 -170
0 c-158 0 -170 -1 -165 -17z"/>
<path d="M3437 3263 c-158 -477 -227 -693 -227 -708 0 -14 22 -15 173 -13
l172 3 16 65 16 65 105 3 105 3 7 -33 c3 -17 11 -49 17 -70 l10 -38 164 0 c90
0 166 3 168 8 4 6 -52 189 -219 710 l-65 202 -189 0 -188 0 -65 -197z m287
-260 l24 -113 -54 0 c-30 0 -54 4 -54 10 0 21 53 234 56 225 2 -5 14 -61 28
-122z"/>
<path d="M4202 3003 l3 -458 313 -3 312 -2 0 140 0 140 -140 0 -140 0 0 320 0
320 -175 0 -175 0 2 -457z"/>
<path d="M4720 3330 l0 -130 100 0 100 0 0 -330 0 -330 173 2 172 3 3 328 2
327 100 0 100 0 0 130 0 130 -375 0 -375 0 0 -130z"/>
<path d="M1480 2900 l0 -360 250 0 250 0 0 95 0 95 -120 0 -120 0 0 40 0 40
105 0 105 0 0 95 0 95 -105 0 -105 0 0 35 0 35 120 0 120 0 0 95 0 95 -250 0
-250 0 0 -360z"/>
<path d="M5335 2675 c-57 -56 -13 -134 70 -125 58 6 77 91 29 129 -35 28 -69
26 -99 -4z m89 -8 c36 -26 11 -107 -33 -107 -29 0 -61 30 -61 57 0 52 53 80
94 50z"/>
<path d="M5360 2618 c1 -38 2 -41 14 -25 12 15 14 16 20 2 10 -28 22 -16 23
25 2 38 0 40 -28 40 -28 0 -29 -2 -29 -42z m45 22 c3 -5 -1 -10 -9 -10 -9 0
-16 5 -16 10 0 6 4 10 9 10 6 0 13 -4 16 -10z"/>
<path d="M530 2450 l0 -50 2470 0 2470 0 0 50 0 50 -2470 0 -2470 0 0 -50z"/>
</g>
</svg>
