<?xml version="1.0" encoding="iso-8859-1"?>
<!-- Generator: Adobe Illustrator 27.0.0, SVG Export Plug-In . SVG Version: 6.00 Build 0)  -->
<svg version="1.1" id="Layer_1" xmlns="http://www.w3.org/2000/svg" xmlns:xlink="http://www.w3.org/1999/xlink" x="0px" y="0px"
	 viewBox="0 0 500 500" style="enable-background:new 0 0 500 500;" xml:space="preserve">
<g id="watermark_1_">
	<g>
		<g id="watermark" style="opacity:0.61;">
			<g>
				<g>
					<g>
						<g>
							<polygon style="fill:#FFFFFF;" points="213.765,461.172 208.204,474.017 205.268,474.017 199.726,461.172 202.938,461.172 
								206.846,470.347 210.81,461.172 							"/>
						</g>
						<g>
							<path style="fill:#FFFFFF;" d="M223.507,469.741h-7.469c0.275,1.23,1.321,1.982,2.826,1.982c1.046,0,1.798-0.312,2.477-0.954
								l1.523,1.651c-0.917,1.046-2.294,1.597-4.074,1.597c-3.413,0-5.634-2.147-5.634-5.083c0-2.954,2.257-5.083,5.267-5.083
								c2.899,0,5.138,1.945,5.138,5.12C223.562,469.191,223.526,469.503,223.507,469.741 M216.002,468.071h4.863
								c-0.202-1.248-1.138-2.055-2.422-2.055C217.139,466.016,216.204,466.805,216.002,468.071"/>
						</g>
						<g>
							<path style="fill:#FFFFFF;" d="M224.735,468.934c0-2.973,2.294-5.083,5.505-5.083c2.074,0,3.707,0.899,4.423,2.514
								l-2.22,1.193c-0.532-0.936-1.321-1.358-2.221-1.358c-1.45,0-2.587,1.009-2.587,2.734c0,1.725,1.138,2.734,2.587,2.734
								c0.899,0,1.688-0.404,2.221-1.358l2.22,1.211c-0.716,1.578-2.349,2.495-4.423,2.495
								C227.029,474.017,224.735,471.907,224.735,468.934"/>
						</g>
						<g>
							<path style="fill:#FFFFFF;" d="M242.828,473.393c-0.587,0.422-1.45,0.624-2.331,0.624c-2.33,0-3.688-1.193-3.688-3.542
								v-4.055h-1.523v-2.202h1.523v-2.404h2.863v2.404h2.459v2.202h-2.459v4.019c0,0.844,0.458,1.303,1.229,1.303
								c0.422,0,0.844-0.128,1.156-0.367L242.828,473.393z"/>
						</g>
					</g>
					<g>
						<path style="fill:#FFFFFF;" d="M262.474,463.997v2.643c-0.238-0.018-0.422-0.037-0.642-0.037
							c-1.578,0-2.624,0.862-2.624,2.753v4.661h-2.863v-9.873h2.734v1.303C259.776,464.493,260.951,463.997,262.474,463.997"/>
					</g>
					<g>
						<path style="fill:#FFFFFF;" d="M263.299,472.53l1.009-2.239c1.083,0.789,2.697,1.339,4.239,1.339
							c1.762,0,2.477-0.587,2.477-1.376c0-2.404-7.469-0.752-7.469-5.524c0-2.184,1.762-4,5.413-4c1.615,0,3.267,0.385,4.459,1.138
							l-0.918,2.257c-1.193-0.679-2.422-1.009-3.56-1.009c-1.761,0-2.44,0.66-2.44,1.468c0,2.367,7.468,0.734,7.468,5.45
							c0,2.147-1.78,3.982-5.45,3.982C266.492,474.017,264.437,473.411,263.299,472.53"/>
					</g>
					<g>
						<path style="fill:#FFFFFF;" d="M285.428,469.741h-7.469c0.275,1.23,1.321,1.982,2.826,1.982c1.046,0,1.798-0.312,2.477-0.954
							l1.523,1.651c-0.918,1.046-2.294,1.597-4.074,1.597c-3.413,0-5.634-2.147-5.634-5.083c0-2.954,2.257-5.083,5.267-5.083
							c2.9,0,5.138,1.945,5.138,5.12C285.484,469.191,285.447,469.503,285.428,469.741 M277.923,468.071h4.863
							c-0.202-1.248-1.138-2.055-2.422-2.055C279.061,466.016,278.125,466.805,277.923,468.071"/>
					</g>
					<g>
						<path style="fill:#FFFFFF;" d="M297.007,469.741h-7.469c0.275,1.23,1.321,1.982,2.826,1.982c1.046,0,1.798-0.312,2.477-0.954
							l1.523,1.651c-0.918,1.046-2.294,1.597-4.074,1.597c-3.413,0-5.634-2.147-5.634-5.083c0-2.954,2.257-5.083,5.267-5.083
							c2.899,0,5.138,1.945,5.138,5.12C297.062,469.191,297.025,469.503,297.007,469.741 M289.501,468.071h4.863
							c-0.202-1.248-1.138-2.055-2.422-2.055C290.639,466.016,289.703,466.805,289.501,468.071"/>
					</g>
					<g>
						<polygon style="fill:#FFFFFF;" points="303.208,470.145 301.831,471.503 301.831,474.017 298.969,474.017 298.969,460.401 
							301.831,460.401 301.831,468.108 306.016,464.144 309.429,464.144 305.318,468.328 309.796,474.017 306.327,474.017 						"/>
					</g>
					<g>
						<path style="fill:#FFFFFF;" d="M256.601,475.359L256.601,475.359l-2.86-2.86c-0.435,0.508-0.953,0.943-1.534,1.284
							c-0.092,0.069-0.186,0.136-0.283,0.199l3.027,3.027c0.456,0.456,1.195,0.456,1.65,0
							C257.057,476.554,257.057,475.815,256.601,475.359"/>
					</g>
					<g>
						<path style="fill:#FFFFFF;" d="M249.984,463.244c0.221-0.173,0.495-0.281,0.797-0.281c0.042,0,0.083,0.002,0.124,0.006
							c-0.214-0.156-0.478-0.249-0.764-0.249c-0.395,0-0.744,0.18-0.981,0.458c-0.051,0-0.1,0.006-0.151,0.008
							c0.039-0.077,0.064-0.162,0.064-0.255c0-0.234-0.143-0.434-0.346-0.519c0.087,0.126,0.138,0.279,0.138,0.445
							c0,0.122-0.031,0.237-0.081,0.341c-2.811,0.201-5.03,2.539-5.03,5.4c0,2.993,2.426,5.42,5.42,5.42
							c2.993,0,5.42-2.426,5.42-5.42C254.595,465.879,252.593,463.635,249.984,463.244 M247.983,464.656
							c0.435,0,0.844,0.112,1.199,0.309c0.374-0.245,0.82-0.387,1.299-0.387c0.711,0,1.348,0.312,1.784,0.806
							c-0.435-0.379-1.004-0.61-1.627-0.61c-0.449,0-0.87,0.12-1.234,0.329c-0.079,0.046-0.156,0.096-0.229,0.15
							c-0.065-0.048-0.133-0.093-0.204-0.134c-0.369-0.219-0.8-0.344-1.26-0.344c-0.3,0-0.588,0.054-0.854,0.152
							C247.196,464.754,247.578,464.656,247.983,464.656 M251.772,469.098c0.115,0.305,0.181,0.634,0.181,0.979
							c0,1.534-1.244,2.777-2.778,2.777c-1.534,0-2.777-1.243-2.777-2.777c0-0.345,0.066-0.674,0.181-0.979
							c-0.62-0.382-1.035-1.064-1.035-1.846c0-1.197,0.971-2.168,2.168-2.168c0.565,0,1.078,0.218,1.463,0.572
							c0.386-0.354,0.899-0.572,1.464-0.572c1.197,0,2.168,0.971,2.168,2.168C252.807,468.034,252.392,468.716,251.772,469.098"/>
					</g>
					<g>
						<path style="fill:#FFFFFF;" d="M251.666,467.061c0,0.497-0.404,0.901-0.901,0.901c-0.497,0-0.901-0.404-0.901-0.901
							s0.404-0.901,0.901-0.901c0.101,0,0.197,0.017,0.287,0.047c-0.03,0.062-0.045,0.132-0.045,0.204
							c0,0.273,0.221,0.494,0.494,0.494c0.05,0,0.099-0.008,0.146-0.022C251.66,466.941,251.666,467,251.666,467.061"/>
					</g>
					<g>
						<path style="fill:#FFFFFF;" d="M248.255,467.061c0,0.376-0.305,0.681-0.681,0.681c-0.376,0-0.681-0.305-0.681-0.681
							s0.305-0.681,0.681-0.681c0.076,0,0.149,0.013,0.217,0.035c-0.023,0.047-0.034,0.1-0.034,0.155
							c0,0.206,0.167,0.374,0.374,0.374c0.038,0,0.075-0.006,0.11-0.017C248.25,466.97,248.255,467.015,248.255,467.061"/>
					</g>
					<g>
						<g>
							<g>
								<rect x="242.908" y="467.83" style="fill:#FFFFFF;" width="0.616" height="0.616"/>
							</g>
							<g>
								<rect x="254.827" y="467.83" style="fill:#FFFFFF;" width="0.616" height="0.616"/>
							</g>
							<g>
								<path style="fill:#FFFFFF;" d="M255.205,468.082h-0.14c0-3.248-2.642-5.89-5.89-5.89c-3.248,0-5.89,2.642-5.89,5.89h-0.14
									c0-1.611,0.627-3.125,1.766-4.264c1.139-1.139,2.653-1.766,4.264-1.766c1.611,0,3.125,0.627,4.264,1.766
									C254.578,464.957,255.205,466.471,255.205,468.082"/>
							</g>
						</g>
						<g>
							<rect x="248.868" y="461.814" style="fill:#FFFFFF;" width="0.616" height="0.616"/>
						</g>
						<g>
							<rect x="244.95" y="462.052" style="fill:#FFFFFF;" width="8.45" height="0.14"/>
						</g>
						<g>
							<path style="fill:#FFFFFF;" d="M245.174,462.15c0,0.108-0.088,0.196-0.196,0.196c-0.108,0-0.196-0.088-0.196-0.196
								c0-0.108,0.088-0.196,0.196-0.196C245.086,461.954,245.174,462.042,245.174,462.15"/>
						</g>
						<g>
							<path style="fill:#FFFFFF;" d="M253.596,462.15c0,0.108-0.088,0.196-0.196,0.196c-0.108,0-0.196-0.088-0.196-0.196
								c0-0.108,0.088-0.196,0.196-0.196C253.509,461.954,253.596,462.042,253.596,462.15"/>
						</g>
					</g>
				</g>
				<g>
					<path style="fill:#FFFFFF;" d="M314.356,473.409c0,1.559-2.364,1.559-2.364,0C311.993,471.851,314.356,471.851,314.356,473.409
						z"/>
				</g>
				<g>
					<g>
						<g>
							<path style="fill:#FFFFFF;" d="M161.739,466.549l1.772,6.088l1.855-6.088h2.215l-2.823,8.14h-2.33l-0.837-2.396l-0.722-2.708
								l-0.722,2.708l-0.837,2.396h-2.33l-2.839-8.14h2.231l1.855,6.088l1.756-6.088H161.739z"/>
						</g>
						<g>
							<path style="fill:#FFFFFF;" d="M176.713,466.549l1.772,6.088l1.855-6.088h2.215l-2.823,8.14h-2.33l-0.837-2.396l-0.722-2.708
								l-0.722,2.708l-0.837,2.396h-2.33l-2.839-8.14h2.231l1.855,6.088l1.756-6.088H176.713z"/>
						</g>
						<g>
							<path style="fill:#FFFFFF;" d="M191.687,466.549l1.772,6.088l1.855-6.088h2.215l-2.823,8.14h-2.33l-0.837-2.396l-0.722-2.708
								l-0.722,2.708l-0.837,2.396h-2.33l-2.839-8.14h2.231l1.855,6.088l1.756-6.088H191.687z"/>
						</g>
					</g>
					<g>
						<path style="fill:#FFFFFF;" d="M200.908,473.52c0,1.559-2.364,1.559-2.364,0C198.545,471.962,200.908,471.962,200.908,473.52z
							"/>
					</g>
					<g>
						<path style="fill:#FFFFFF;" d="M322.71,473.409c-0.935,0.919-1.919,1.28-3.117,1.28c-2.346,0-4.3-1.411-4.3-4.282
							s1.953-4.284,4.3-4.284c1.149,0,2.035,0.329,2.921,1.199l-1.264,1.329c-0.476-0.428-1.066-0.64-1.623-0.64
							c-1.346,0-2.33,0.985-2.33,2.396c0,1.542,1.05,2.362,2.297,2.362c0.64,0,1.28-0.18,1.772-0.672L322.71,473.409z"/>
					</g>
					<g>
						<path style="fill:#FFFFFF;" d="M331.805,470.472c0,2.33-1.591,4.217-4.217,4.217c-2.626,0-4.201-1.887-4.201-4.217
							c0-2.314,1.609-4.217,4.185-4.217C330.149,466.255,331.805,468.158,331.805,470.472z M325.389,470.472
							c0,1.231,0.739,2.38,2.199,2.38c1.46,0,2.199-1.149,2.199-2.38c0-1.215-0.854-2.396-2.199-2.396
							C326.144,468.077,325.389,469.258,325.389,470.472z"/>
					</g>
					<g>
						<path style="fill:#FFFFFF;" d="M338.572,474.689v-4.332c0-1.068-0.559-2.035-1.658-2.035c-1.082,0-1.722,0.967-1.722,2.035
							v4.332h-2.003v-8.107h1.855l0.148,0.985c0.426-0.82,1.362-1.116,2.133-1.116c0.969,0,1.937,0.394,2.396,1.51
							c0.723-1.149,1.658-1.478,2.708-1.478c2.297,0,3.43,1.412,3.43,3.84v4.365h-2.003v-4.365c0-1.066-0.442-1.97-1.526-1.97
							c-1.082,0-1.756,0.935-1.756,2.003v4.332H338.572z"/>
					</g>
				</g>
			</g>
		</g>
		<g style="opacity:0.61;">
			<g>
				<g>
					<path style="fill:#FFFFFF;" d="M345.988,431.299c-0.006-1.224-0.959-2.121-2.189-2.14c-0.924-0.014-0.832,0.12-0.834-0.867
						c-0.003-1.097-0.007-2.194,0.003-3.292c0.003-0.379-0.112-0.691-0.362-0.976c-2.342-2.668-4.678-5.342-7.019-8.011
						c-0.12-0.137-0.275-0.244-0.414-0.366c-6.214,0-12.427,0-18.641,0c-0.794,0.293-1.14,0.868-1.138,1.709
						c0.01,3.748,0.004,7.496,0.004,11.243c0,0.556-0.003,0.589-0.55,0.551c-1.497-0.102-2.516,0.986-2.497,2.492
						c0.044,3.476,0.013,6.953,0.014,10.429c0.001,1.58,0.867,2.443,2.45,2.449c0.582,0.002,0.582,0.002,0.582,0.6
						c0,2.219-0.001,4.438,0.001,6.657c0.001,1.192,0.58,1.771,1.768,1.771c8.013,0.001,16.027,0.001,24.04,0
						c1.168,0,1.755-0.583,1.757-1.745c0.002-2.256,0-4.512,0.001-6.768c0-0.512,0.002-0.511,0.52-0.515
						c0.271-0.002,0.541,0.008,0.809-0.058c0.996-0.246,1.69-1.044,1.694-2.069C346.003,438.696,346.005,434.997,345.988,431.299z
						 M317.537,417.162c5.337,0,10.674,0,16.01,0c0.548,0,0.554,0.007,0.554,0.561c0.001,2.243-0.001,4.486,0.001,6.73
						c0.001,0.811,0.249,1.059,1.06,1.059c1.91,0.001,3.821,0,5.731,0.001c0.458,0,0.479,0.021,0.481,0.483
						c0.003,0.887,0.002,1.775,0,2.662c-0.001,0.477-0.024,0.498-0.504,0.499c-3.895,0.001-7.79,0-11.684,0
						c-3.882,0-7.765,0-11.647,0c-0.55,0-0.552-0.001-0.552-0.561c-0.001-3.624-0.001-7.247,0-10.871
						C316.987,417.166,316.991,417.162,317.537,417.162z M340.822,451.579c-3.883,0.001-7.766,0-11.65,0c-3.871,0-7.742,0-11.613,0
						c-0.572,0-0.574-0.002-0.574-0.579c-0.001-1.997-0.001-3.994,0.001-5.991c0-0.464,0.023-0.486,0.478-0.487
						c7.803-0.001,15.607-0.001,23.41,0c0.478,0,0.499,0.02,0.499,0.503c0.002,1.997,0.001,3.994,0,5.991
						C341.375,451.574,341.37,451.579,340.822,451.579z"/>
				</g>
				<g>
					<g>
						<rect x="327.418" y="417.053" style="fill:#FFFFFF;" width="1.757" height="1.054"/>
					</g>
					<g>
						<rect x="325.662" y="418.107" style="fill:#FFFFFF;" width="1.757" height="1.054"/>
					</g>
					<g>
						<rect x="327.418" y="419.161" style="fill:#FFFFFF;" width="1.757" height="1.054"/>
					</g>
					<g>
						<rect x="325.662" y="420.215" style="fill:#FFFFFF;" width="1.757" height="1.054"/>
					</g>
					<g>
						<rect x="327.418" y="421.269" style="fill:#FFFFFF;" width="1.757" height="1.054"/>
					</g>
					<g>
						<rect x="325.662" y="422.323" style="fill:#FFFFFF;" width="1.757" height="1.054"/>
					</g>
					<g>
						<rect x="327.418" y="423.378" style="fill:#FFFFFF;" width="1.757" height="1.054"/>
					</g>
					<g>
						<rect x="325.662" y="424.432" style="fill:#FFFFFF;" width="1.757" height="1.054"/>
					</g>
					<g>
						<rect x="327.418" y="425.486" style="fill:#FFFFFF;" width="1.757" height="1.054"/>
					</g>
					<g>
						<rect x="325.662" y="426.54" style="fill:#FFFFFF;" width="1.757" height="1.054"/>
					</g>
					<g>
						<rect x="327.418" y="427.594" style="fill:#FFFFFF;" width="1.757" height="1.054"/>
					</g>
					<g>
						<rect x="325.662" y="428.648" style="fill:#FFFFFF;" width="1.757" height="1.054"/>
					</g>
				</g>
			</g>
			<g>
				<path style="fill:#FFFFFF;" d="M187.637,431.299c-0.006-1.224-0.959-2.121-2.189-2.14c-0.924-0.014-0.832,0.12-0.834-0.867
					c-0.003-1.097-0.007-2.194,0.003-3.292c0.003-0.379-0.112-0.691-0.362-0.976c-2.342-2.668-4.678-5.342-7.019-8.011
					c-0.12-0.137-0.275-0.244-0.414-0.366c-6.214,0-12.427,0-18.641,0c-0.794,0.293-1.14,0.868-1.138,1.709
					c0.01,3.748,0.004,7.496,0.004,11.243c0,0.556-0.003,0.589-0.55,0.551c-1.497-0.102-2.516,0.986-2.497,2.492
					c0.044,3.476,0.013,6.953,0.014,10.429c0.001,1.58,0.867,2.443,2.45,2.449c0.582,0.002,0.582,0.002,0.582,0.6
					c0,2.219-0.001,4.438,0.001,6.657c0.001,1.192,0.58,1.771,1.768,1.771c8.013,0.001,16.027,0.001,24.04,0
					c1.168,0,1.755-0.583,1.757-1.745c0.002-2.256,0-4.512,0.001-6.768c0-0.512,0.002-0.511,0.52-0.515
					c0.271-0.002,0.541,0.008,0.809-0.058c0.996-0.246,1.69-1.044,1.694-2.069C187.652,438.696,187.655,434.997,187.637,431.299z
					 M159.187,417.162c5.337,0,10.674,0,16.01,0c0.548,0,0.554,0.007,0.554,0.561c0.001,2.243-0.001,4.486,0.001,6.73
					c0.001,0.811,0.249,1.059,1.06,1.059c1.91,0.001,3.821,0,5.731,0.001c0.458,0,0.479,0.021,0.481,0.483
					c0.003,0.887,0.002,1.775,0,2.662c-0.001,0.477-0.024,0.498-0.504,0.499c-3.895,0.001-7.79,0-11.684,0
					c-3.882,0-7.765,0-11.647,0c-0.55,0-0.552-0.001-0.552-0.561c-0.001-3.624-0.001-7.247,0-10.871
					C158.636,417.166,158.64,417.162,159.187,417.162z M182.472,451.579c-3.883,0.001-7.766,0-11.65,0c-3.871,0-7.742,0-11.613,0
					c-0.572,0-0.574-0.002-0.574-0.579c-0.001-1.997-0.001-3.994,0.001-5.991c0-0.464,0.023-0.486,0.478-0.487
					c7.803-0.001,15.607-0.001,23.41,0c0.478,0,0.499,0.02,0.499,0.503c0.002,1.997,0.001,3.994,0,5.991
					C183.024,451.574,183.019,451.579,182.472,451.579z"/>
			</g>
			<g>
				<path style="fill:#FFFFFF;" d="M159.779,440.669v-7.897h2.779c0.375,0,0.726,0.061,1.053,0.182
					c0.327,0.121,0.612,0.292,0.855,0.513c0.242,0.221,0.434,0.483,0.573,0.789c0.14,0.305,0.21,0.642,0.21,1.009
					c0,0.375-0.07,0.715-0.21,1.02c-0.14,0.305-0.331,0.568-0.573,0.789c-0.243,0.221-0.528,0.392-0.855,0.513
					c-0.327,0.121-0.678,0.182-1.053,0.182h-1.29v2.901H159.779z M162.58,436.356c0.39,0,0.684-0.111,0.882-0.331
					c0.199-0.22,0.298-0.474,0.298-0.761c0-0.14-0.024-0.276-0.072-0.408c-0.048-0.132-0.121-0.248-0.221-0.347
					c-0.099-0.099-0.223-0.178-0.37-0.237c-0.147-0.059-0.32-0.089-0.518-0.089h-1.312v2.173H162.58z"/>
				<path style="fill:#FFFFFF;" d="M166.308,432.771h1.731l3.177,5.294h0.088l-0.088-1.522v-3.772h1.478v7.897h-1.566l-3.353-5.592
					h-0.088l0.088,1.522v4.07h-1.467V432.771z"/>
				<path style="fill:#FFFFFF;" d="M177.922,436.334h3.872c0.022,0.089,0.04,0.195,0.055,0.32c0.014,0.125,0.022,0.25,0.022,0.375
					c0,0.507-0.077,0.985-0.231,1.434c-0.154,0.449-0.397,0.849-0.728,1.202c-0.353,0.375-0.776,0.666-1.268,0.871
					c-0.493,0.206-1.055,0.309-1.688,0.309c-0.574,0-1.114-0.103-1.622-0.309c-0.507-0.206-0.948-0.492-1.323-0.86
					c-0.375-0.367-0.673-0.803-0.894-1.307c-0.221-0.504-0.331-1.053-0.331-1.649c0-0.595,0.11-1.145,0.331-1.649
					c0.221-0.504,0.518-0.939,0.894-1.307c0.375-0.367,0.816-0.654,1.323-0.86c0.507-0.206,1.048-0.309,1.622-0.309
					c0.64,0,1.211,0.11,1.715,0.331c0.504,0.221,0.935,0.526,1.296,0.915l-1.025,1.004c-0.258-0.272-0.544-0.48-0.861-0.623
					c-0.316-0.143-0.695-0.215-1.136-0.215c-0.361,0-0.703,0.065-1.026,0.193c-0.324,0.129-0.607,0.311-0.85,0.546
					c-0.242,0.235-0.436,0.52-0.579,0.855c-0.143,0.335-0.215,0.708-0.215,1.119c0,0.412,0.072,0.785,0.215,1.12
					c0.143,0.335,0.338,0.62,0.584,0.855c0.246,0.235,0.531,0.418,0.855,0.546c0.323,0.129,0.669,0.193,1.037,0.193
					c0.419,0,0.773-0.061,1.064-0.182c0.29-0.121,0.538-0.278,0.744-0.469c0.148-0.132,0.275-0.3,0.381-0.502
					c0.106-0.202,0.189-0.428,0.248-0.678h-2.482V436.334z"/>
			</g>
			<g>
				<path style="fill:#FFFFFF;" d="M224.019,431.299c-0.006-1.224-0.959-2.121-2.189-2.14c-0.924-0.014-0.832,0.12-0.834-0.867
					c-0.003-1.097-0.007-2.194,0.003-3.292c0.003-0.379-0.112-0.691-0.362-0.976c-2.342-2.668-4.678-5.342-7.019-8.011
					c-0.12-0.137-0.275-0.244-0.414-0.366c-6.214,0-12.427,0-18.641,0c-0.794,0.293-1.14,0.868-1.138,1.709
					c0.01,3.748,0.004,7.496,0.004,11.243c0,0.556-0.003,0.589-0.55,0.551c-1.497-0.102-2.516,0.986-2.497,2.492
					c0.044,3.476,0.013,6.953,0.014,10.429c0.001,1.58,0.867,2.443,2.45,2.449c0.582,0.002,0.582,0.002,0.582,0.6
					c0,2.219-0.001,4.438,0.001,6.657c0.001,1.192,0.58,1.771,1.768,1.771c8.013,0.001,16.027,0.001,24.04,0
					c1.168,0,1.755-0.583,1.757-1.745c0.002-2.256,0-4.512,0.001-6.768c0-0.512,0.002-0.511,0.52-0.515
					c0.271-0.002,0.541,0.008,0.809-0.058c0.997-0.246,1.69-1.044,1.694-2.069C224.034,438.696,224.036,434.997,224.019,431.299z
					 M195.568,417.162c5.337,0,10.674,0,16.01,0c0.548,0,0.554,0.007,0.554,0.561c0.001,2.243-0.001,4.486,0.001,6.73
					c0.001,0.811,0.249,1.059,1.06,1.059c1.91,0.001,3.821,0,5.731,0.001c0.458,0,0.479,0.021,0.481,0.483
					c0.003,0.887,0.002,1.775,0,2.662c-0.001,0.477-0.024,0.498-0.504,0.499c-3.895,0.001-7.79,0-11.684,0
					c-3.882,0-7.765,0-11.647,0c-0.55,0-0.552-0.001-0.552-0.561c-0.001-3.624-0.001-7.247,0-10.871
					C195.018,417.166,195.022,417.162,195.568,417.162z M218.854,451.579c-3.883,0.001-7.766,0-11.65,0c-3.871,0-7.742,0-11.613,0
					c-0.572,0-0.574-0.002-0.574-0.579c-0.001-1.997-0.001-3.994,0.001-5.991c0-0.464,0.023-0.486,0.478-0.487
					c7.803-0.001,15.607-0.001,23.41,0c0.478,0,0.499,0.02,0.499,0.503c0.002,1.997,0.001,3.994,0,5.991
					C219.406,451.574,219.401,451.579,218.854,451.579z"/>
			</g>
			<g>
				<path style="fill:#FFFFFF;" d="M205.111,432.771h1.699l2.967,7.897h-1.644l-0.651-1.886h-3.044l-0.651,1.886h-1.643
					L205.111,432.771z M206.997,437.415l-0.706-1.974l-0.287-0.96h-0.088l-0.287,0.96l-0.706,1.974H206.997z"/>
				<path style="fill:#FFFFFF;" d="M211.331,434.536c-0.125,0-0.245-0.024-0.359-0.072c-0.114-0.048-0.213-0.114-0.298-0.199
					c-0.084-0.084-0.151-0.182-0.198-0.292c-0.048-0.11-0.072-0.232-0.072-0.364s0.024-0.254,0.072-0.364
					c0.048-0.11,0.114-0.208,0.198-0.292c0.084-0.084,0.184-0.151,0.298-0.198c0.114-0.048,0.233-0.072,0.359-0.072
					c0.257,0,0.478,0.09,0.662,0.27c0.184,0.181,0.276,0.399,0.276,0.656s-0.092,0.476-0.276,0.656
					C211.809,434.446,211.589,434.536,211.331,434.536z M210.615,440.669v-5.404h1.445v5.404H210.615z"/>
			</g>
			<g>
				<path style="fill:#FFFFFF;" d="M261.044,431.299c-0.006-1.224-0.959-2.121-2.189-2.14c-0.924-0.014-0.832,0.12-0.834-0.867
					c-0.003-1.097-0.007-2.194,0.003-3.292c0.003-0.379-0.112-0.691-0.362-0.976c-2.342-2.668-4.678-5.342-7.019-8.011
					c-0.12-0.137-0.275-0.244-0.414-0.366c-6.214,0-12.427,0-18.641,0c-0.794,0.293-1.14,0.868-1.138,1.709
					c0.01,3.748,0.004,7.496,0.004,11.243c0,0.556-0.003,0.589-0.55,0.551c-1.497-0.102-2.516,0.986-2.497,2.492
					c0.044,3.476,0.013,6.953,0.014,10.429c0.001,1.58,0.867,2.443,2.45,2.449c0.582,0.002,0.582,0.002,0.582,0.6
					c0,2.219-0.001,4.438,0.001,6.657c0.001,1.192,0.58,1.771,1.768,1.771c8.013,0.001,16.027,0.001,24.04,0
					c1.168,0,1.755-0.583,1.757-1.745c0.002-2.256,0-4.512,0.001-6.768c0-0.512,0.002-0.511,0.52-0.515
					c0.271-0.002,0.541,0.008,0.809-0.058c0.996-0.246,1.69-1.044,1.694-2.069C261.059,438.696,261.061,434.997,261.044,431.299z
					 M232.593,417.162c5.337,0,10.674,0,16.01,0c0.548,0,0.554,0.007,0.554,0.561c0.001,2.243-0.001,4.486,0.001,6.73
					c0.001,0.811,0.249,1.059,1.06,1.059c1.91,0.001,3.821,0,5.731,0.001c0.458,0,0.479,0.021,0.481,0.483
					c0.003,0.887,0.002,1.775,0,2.662c-0.001,0.477-0.024,0.498-0.504,0.499c-3.895,0.001-7.79,0-11.684,0
					c-3.882,0-7.765,0-11.647,0c-0.55,0-0.552-0.001-0.552-0.561c-0.001-3.624-0.001-7.247,0-10.871
					C232.042,417.166,232.047,417.162,232.593,417.162z M255.878,451.579c-3.883,0.001-7.766,0-11.65,0c-3.871,0-7.742,0-11.613,0
					c-0.572,0-0.574-0.002-0.574-0.579c-0.001-1.997-0.001-3.994,0.001-5.991c0-0.464,0.023-0.486,0.478-0.487
					c7.803-0.001,15.607-0.001,23.41,0c0.478,0,0.499,0.02,0.499,0.503c0.002,1.997,0.001,3.994,0,5.991
					C256.431,451.574,256.426,451.579,255.878,451.579z"/>
			</g>
			<g>
				<path style="fill:#FFFFFF;" d="M236.361,440.845c-0.338,0-0.662-0.048-0.971-0.143c-0.309-0.095-0.592-0.239-0.849-0.43
					c-0.257-0.191-0.481-0.425-0.673-0.7c-0.191-0.276-0.342-0.597-0.452-0.965l1.401-0.551c0.103,0.397,0.283,0.726,0.54,0.987
					c0.257,0.261,0.596,0.392,1.015,0.392c0.154,0,0.303-0.02,0.447-0.061c0.143-0.04,0.272-0.099,0.386-0.176
					s0.204-0.175,0.27-0.292c0.066-0.118,0.099-0.254,0.099-0.408c0-0.147-0.026-0.279-0.077-0.397
					c-0.051-0.117-0.138-0.227-0.259-0.331c-0.121-0.103-0.28-0.202-0.475-0.298c-0.195-0.095-0.435-0.195-0.722-0.298l-0.485-0.176
					c-0.213-0.073-0.429-0.173-0.645-0.298c-0.217-0.125-0.413-0.276-0.59-0.452c-0.177-0.176-0.322-0.384-0.436-0.623
					c-0.114-0.239-0.171-0.509-0.171-0.81c0-0.309,0.06-0.597,0.182-0.866c0.121-0.268,0.294-0.503,0.518-0.706
					c0.224-0.202,0.492-0.36,0.805-0.474s0.66-0.171,1.042-0.171c0.397,0,0.74,0.053,1.031,0.16
					c0.291,0.107,0.537,0.243,0.739,0.408c0.202,0.165,0.366,0.348,0.491,0.546c0.125,0.199,0.217,0.386,0.276,0.563l-1.312,0.551
					c-0.074-0.221-0.208-0.419-0.402-0.596c-0.195-0.176-0.462-0.265-0.8-0.265c-0.324,0-0.592,0.075-0.805,0.226
					c-0.213,0.151-0.32,0.348-0.32,0.59c0,0.235,0.103,0.436,0.309,0.601c0.206,0.165,0.533,0.325,0.982,0.48l0.497,0.165
					c0.316,0.111,0.605,0.237,0.866,0.381c0.261,0.143,0.485,0.314,0.673,0.513c0.187,0.199,0.331,0.425,0.43,0.678
					c0.1,0.254,0.149,0.546,0.149,0.877c0,0.412-0.083,0.767-0.248,1.064c-0.165,0.298-0.377,0.542-0.634,0.734
					c-0.258,0.191-0.548,0.335-0.872,0.43C236.986,440.797,236.67,440.845,236.361,440.845z"/>
				<path style="fill:#FFFFFF;" d="M239.516,432.771h1.61l1.633,4.754l0.287,1.015h0.088l0.309-1.015l1.699-4.754h1.61l-2.879,7.897
					h-1.566L239.516,432.771z"/>
				<path style="fill:#FFFFFF;" d="M251.097,436.334h3.871c0.022,0.089,0.04,0.195,0.055,0.32c0.015,0.125,0.023,0.25,0.023,0.375
					c0,0.507-0.078,0.985-0.232,1.434c-0.154,0.449-0.397,0.849-0.728,1.202c-0.353,0.375-0.775,0.666-1.268,0.871
					c-0.493,0.206-1.055,0.309-1.688,0.309c-0.574,0-1.114-0.103-1.621-0.309c-0.507-0.206-0.949-0.492-1.324-0.86
					c-0.375-0.367-0.673-0.803-0.894-1.307c-0.22-0.504-0.331-1.053-0.331-1.649c0-0.595,0.11-1.145,0.331-1.649
					c0.221-0.504,0.518-0.939,0.894-1.307c0.375-0.367,0.816-0.654,1.324-0.86c0.507-0.206,1.047-0.309,1.621-0.309
					c0.64,0,1.211,0.11,1.715,0.331c0.504,0.221,0.936,0.526,1.296,0.915l-1.026,1.004c-0.257-0.272-0.544-0.48-0.861-0.623
					c-0.316-0.143-0.694-0.215-1.136-0.215c-0.36,0-0.702,0.065-1.026,0.193c-0.323,0.129-0.607,0.311-0.849,0.546
					c-0.243,0.235-0.436,0.52-0.579,0.855c-0.143,0.335-0.215,0.708-0.215,1.119c0,0.412,0.072,0.785,0.215,1.12
					c0.143,0.335,0.338,0.62,0.585,0.855c0.246,0.235,0.531,0.418,0.854,0.546c0.324,0.129,0.669,0.193,1.037,0.193
					c0.419,0,0.774-0.061,1.064-0.182c0.29-0.121,0.539-0.278,0.745-0.469c0.147-0.132,0.274-0.3,0.38-0.502
					c0.107-0.202,0.189-0.428,0.248-0.678h-2.482V436.334z"/>
			</g>
			<g>
				<path style="fill:#FFFFFF;" d="M297.3,431.299c-0.006-1.224-0.959-2.121-2.189-2.14c-0.924-0.014-0.832,0.12-0.834-0.867
					c-0.003-1.097-0.007-2.194,0.003-3.292c0.003-0.379-0.112-0.691-0.362-0.976c-2.342-2.668-4.678-5.342-7.019-8.011
					c-0.12-0.137-0.275-0.244-0.414-0.366c-6.214,0-12.427,0-18.641,0c-0.794,0.293-1.14,0.868-1.138,1.709
					c0.01,3.748,0.004,7.496,0.004,11.243c0,0.556-0.003,0.589-0.55,0.551c-1.497-0.102-2.516,0.986-2.497,2.492
					c0.044,3.476,0.013,6.953,0.014,10.429c0.001,1.58,0.867,2.443,2.45,2.449c0.582,0.002,0.582,0.002,0.582,0.6
					c0,2.219-0.001,4.438,0.001,6.657c0.001,1.192,0.58,1.771,1.768,1.771c8.013,0.001,16.027,0.001,24.04,0
					c1.168,0,1.755-0.583,1.757-1.745c0.002-2.256,0-4.512,0.001-6.768c0-0.512,0.002-0.511,0.52-0.515
					c0.271-0.002,0.541,0.008,0.809-0.058c0.996-0.246,1.69-1.044,1.694-2.069C297.315,438.696,297.318,434.997,297.3,431.299z
					 M268.85,417.162c5.337,0,10.674,0,16.01,0c0.548,0,0.554,0.007,0.554,0.561c0.001,2.243-0.001,4.486,0.001,6.73
					c0.001,0.811,0.249,1.059,1.06,1.059c1.91,0.001,3.821,0,5.731,0.001c0.458,0,0.479,0.021,0.481,0.483
					c0.003,0.887,0.002,1.775,0,2.662c-0.001,0.477-0.024,0.498-0.504,0.499c-3.895,0.001-7.79,0-11.684,0
					c-3.882,0-7.765,0-11.647,0c-0.55,0-0.552-0.001-0.552-0.561c-0.001-3.624-0.001-7.247,0-10.871
					C268.299,417.166,268.303,417.162,268.85,417.162z M292.135,451.579c-3.883,0.001-7.766,0-11.65,0c-3.871,0-7.742,0-11.613,0
					c-0.572,0-0.574-0.002-0.574-0.579c-0.001-1.997-0.001-3.994,0.001-5.991c0-0.464,0.023-0.486,0.478-0.487
					c7.803-0.001,15.607-0.001,23.41,0c0.478,0,0.499,0.02,0.499,0.503c0.001,1.997,0.001,3.994,0,5.991
					C292.687,451.574,292.682,451.579,292.135,451.579z"/>
			</g>
			<g>
				<path style="fill:#FFFFFF;" d="M272.966,434.183v1.831h3.165v1.412h-3.165v1.831h3.518v1.412h-5.007v-7.897h5.007v1.412H272.966
					z"/>
				<path style="fill:#FFFFFF;" d="M277.852,440.669v-7.897h2.779c0.375,0,0.726,0.061,1.053,0.182
					c0.327,0.121,0.612,0.292,0.855,0.513c0.243,0.221,0.434,0.483,0.574,0.789c0.14,0.305,0.209,0.642,0.209,1.009
					c0,0.375-0.07,0.715-0.209,1.02c-0.14,0.305-0.331,0.568-0.574,0.789c-0.243,0.221-0.528,0.392-0.855,0.513
					c-0.327,0.121-0.678,0.182-1.053,0.182h-1.29v2.901H277.852z M280.653,436.356c0.389,0,0.684-0.111,0.882-0.331
					c0.199-0.22,0.298-0.474,0.298-0.761c0-0.14-0.024-0.276-0.072-0.408c-0.048-0.132-0.121-0.248-0.221-0.347
					c-0.099-0.099-0.222-0.178-0.37-0.237c-0.147-0.059-0.32-0.089-0.518-0.089h-1.312v2.173H280.653z"/>
				<path style="fill:#FFFFFF;" d="M286.797,440.845c-0.338,0-0.662-0.048-0.971-0.143c-0.309-0.095-0.592-0.239-0.849-0.43
					c-0.257-0.191-0.482-0.425-0.673-0.7c-0.191-0.276-0.342-0.597-0.452-0.965l1.401-0.551c0.103,0.397,0.283,0.726,0.541,0.987
					c0.257,0.261,0.595,0.392,1.015,0.392c0.154,0,0.303-0.02,0.447-0.061c0.143-0.04,0.272-0.099,0.386-0.176
					c0.114-0.077,0.204-0.175,0.27-0.292c0.066-0.118,0.1-0.254,0.1-0.408c0-0.147-0.026-0.279-0.077-0.397
					c-0.051-0.117-0.138-0.227-0.259-0.331c-0.121-0.103-0.279-0.202-0.474-0.298c-0.195-0.095-0.436-0.195-0.723-0.298
					l-0.485-0.176c-0.213-0.073-0.428-0.173-0.645-0.298c-0.217-0.125-0.414-0.276-0.59-0.452c-0.176-0.176-0.322-0.384-0.436-0.623
					c-0.114-0.239-0.171-0.509-0.171-0.81c0-0.309,0.061-0.597,0.182-0.866c0.121-0.268,0.294-0.503,0.518-0.706
					c0.224-0.202,0.493-0.36,0.805-0.474c0.312-0.114,0.66-0.171,1.042-0.171c0.397,0,0.741,0.053,1.031,0.16
					c0.29,0.107,0.537,0.243,0.739,0.408c0.202,0.165,0.365,0.348,0.491,0.546c0.125,0.199,0.217,0.386,0.276,0.563l-1.312,0.551
					c-0.074-0.221-0.208-0.419-0.403-0.596c-0.195-0.176-0.462-0.265-0.799-0.265c-0.324,0-0.592,0.075-0.805,0.226
					c-0.213,0.151-0.32,0.348-0.32,0.59c0,0.235,0.103,0.436,0.309,0.601c0.206,0.165,0.533,0.325,0.982,0.48l0.496,0.165
					c0.316,0.111,0.605,0.237,0.866,0.381c0.261,0.143,0.485,0.314,0.673,0.513c0.187,0.199,0.331,0.425,0.43,0.678
					c0.099,0.254,0.149,0.546,0.149,0.877c0,0.412-0.083,0.767-0.248,1.064c-0.165,0.298-0.377,0.542-0.634,0.734
					c-0.258,0.191-0.548,0.335-0.872,0.43C287.422,440.797,287.105,440.845,286.797,440.845z"/>
			</g>
			<g>
				<path style="fill:#FFFFFF;" d="M321.394,439.168l4.004-4.985h-3.827v-1.412h5.559v1.5l-3.96,4.985h4.004v1.412h-5.779V439.168z"
					/>
				<path style="fill:#FFFFFF;" d="M328.409,432.771h1.489v7.897h-1.489V432.771z"/>
				<path style="fill:#FFFFFF;" d="M331.486,440.669v-7.897h2.779c0.375,0,0.726,0.061,1.053,0.182
					c0.327,0.121,0.612,0.292,0.855,0.513s0.434,0.483,0.574,0.789c0.14,0.305,0.209,0.642,0.209,1.009
					c0,0.375-0.07,0.715-0.209,1.02c-0.14,0.305-0.331,0.568-0.574,0.789c-0.243,0.221-0.528,0.392-0.855,0.513
					c-0.327,0.121-0.678,0.182-1.053,0.182h-1.29v2.901H331.486z M334.288,436.356c0.389,0,0.684-0.111,0.882-0.331
					c0.199-0.22,0.298-0.474,0.298-0.761c0-0.14-0.024-0.276-0.072-0.408c-0.048-0.132-0.121-0.248-0.221-0.347
					c-0.099-0.099-0.222-0.178-0.37-0.237c-0.147-0.059-0.32-0.089-0.518-0.089h-1.312v2.173H334.288z"/>
			</g>
		</g>
		<g style="opacity:0.61;">
			<path style="fill:#FFFFFF;" d="M300.133,433.27h9.067v2.242h-9.067V433.27z M300.133,437.136h9.067v2.243h-9.067V437.136z"/>
		</g>
	</g>
	<g style="opacity:0.61;">
		<path style="fill:#FFFFFF;" d="M156.756,478.878h1.607c1.263,0,2.114,0.812,2.114,1.974c0,1.161-0.851,1.973-2.114,1.973h-1.607
			V478.878z M158.34,482.464c1.049,0,1.725-0.665,1.725-1.612c0-0.947-0.677-1.613-1.725-1.613h-1.167v3.225H158.34z"/>
		<path style="fill:#FFFFFF;" d="M165.139,480.851c0-1.15,0.879-2.007,2.075-2.007c1.184,0,2.069,0.851,2.069,2.007
			c0,1.156-0.885,2.007-2.069,2.007C166.019,482.858,165.139,482.002,165.139,480.851z M168.866,480.851
			c0-0.942-0.705-1.635-1.652-1.635c-0.953,0-1.663,0.693-1.663,1.635c0,0.941,0.71,1.635,1.663,1.635
			C168.162,482.486,168.866,481.793,168.866,480.851z"/>
		<path style="fill:#FFFFFF;" d="M179.596,478.878l-1.331,3.947h-0.44l-1.156-3.366l-1.161,3.366h-0.434l-1.331-3.947h0.429
			l1.139,3.394l1.178-3.394h0.389l1.161,3.411l1.156-3.411H179.596z"/>
		<path style="fill:#FFFFFF;" d="M187.731,478.878v3.947h-0.344l-2.537-3.202v3.202h-0.417v-3.947h0.344l2.543,3.203v-3.203H187.731
			z"/>
		<path style="fill:#FFFFFF;" d="M193.093,478.878h0.417v3.586h2.21v0.361h-2.627V478.878z"/>
		<path style="fill:#FFFFFF;" d="M200.061,480.851c0-1.15,0.879-2.007,2.075-2.007c1.184,0,2.069,0.851,2.069,2.007
			c0,1.156-0.885,2.007-2.069,2.007C200.941,482.858,200.061,482.002,200.061,480.851z M203.788,480.851
			c0-0.942-0.705-1.635-1.652-1.635c-0.953,0-1.663,0.693-1.663,1.635c0,0.941,0.71,1.635,1.663,1.635
			C203.083,482.486,203.788,481.793,203.788,480.851z"/>
		<path style="fill:#FFFFFF;" d="M211.636,481.77h-2.199l-0.474,1.054h-0.434l1.804-3.947h0.412l1.804,3.947h-0.44L211.636,481.77z
			 M211.484,481.432l-0.947-2.12l-0.947,2.12H211.484z"/>
		<path style="fill:#FFFFFF;" d="M217.28,478.878h1.607c1.263,0,2.114,0.812,2.114,1.974c0,1.161-0.851,1.973-2.114,1.973h-1.607
			V478.878z M218.864,482.464c1.049,0,1.725-0.665,1.725-1.612c0-0.947-0.677-1.613-1.725-1.613h-1.167v3.225H218.864z"/>
		<path style="fill:#FFFFFF;" d="M234.041,481.77h-2.199l-0.474,1.054h-0.434l1.804-3.947h0.412l1.804,3.947h-0.44L234.041,481.77z
			 M233.889,481.432l-0.947-2.12l-0.947,2.12H233.889z"/>
		<path style="fill:#FFFFFF;" d="M239.685,478.878h0.417v3.586h2.21v0.361h-2.627V478.878z"/>
		<path style="fill:#FFFFFF;" d="M247.082,478.878h0.417v3.586h2.21v0.361h-2.627V478.878z"/>
		<path style="fill:#FFFFFF;" d="M260.449,479.239v1.551h2.041v0.361h-2.041v1.675h-0.417v-3.947h2.706v0.361H260.449z"/>
		<path style="fill:#FFFFFF;" d="M267.678,478.878h0.417v3.947h-0.417V478.878z"/>
		<path style="fill:#FFFFFF;" d="M273.456,478.878h0.417v3.586h2.21v0.361h-2.627V478.878z"/>
		<path style="fill:#FFFFFF;" d="M283.644,482.464v0.361h-2.791v-3.947h2.706v0.361h-2.289v1.404h2.041v0.355h-2.041v1.466H283.644z
			"/>
		<path style="fill:#FFFFFF;" d="M294.672,479.239v1.551h2.041v0.361h-2.041v1.675h-0.417v-3.947h2.706v0.361H294.672z"/>
		<path style="fill:#FFFFFF;" d="M301.5,480.851c0-1.15,0.879-2.007,2.075-2.007c1.184,0,2.069,0.851,2.069,2.007
			c0,1.156-0.885,2.007-2.069,2.007C302.379,482.858,301.5,482.002,301.5,480.851z M305.226,480.851
			c0-0.942-0.705-1.635-1.652-1.635c-0.953,0-1.663,0.693-1.663,1.635c0,0.941,0.71,1.635,1.663,1.635
			C304.522,482.486,305.226,481.793,305.226,480.851z"/>
		<path style="fill:#FFFFFF;" d="M313.351,482.825l-0.902-1.269c-0.102,0.011-0.203,0.017-0.316,0.017h-1.06v1.252h-0.417v-3.947
			h1.477c1.004,0,1.613,0.507,1.613,1.353c0,0.62-0.327,1.054-0.902,1.24l0.964,1.353H313.351z M313.328,480.231
			c0-0.632-0.417-0.992-1.207-0.992h-1.048v1.979h1.048C312.911,481.218,313.328,480.851,313.328,480.231z"/>
		<path style="fill:#FFFFFF;" d="M322.907,478.878v3.947h-0.4v-3.158l-1.551,2.656h-0.197l-1.551-2.639v3.14h-0.4v-3.947h0.344
			l1.714,2.926l1.697-2.926H322.907z"/>
		<path style="fill:#FFFFFF;" d="M330.744,481.77h-2.199l-0.473,1.054h-0.434l1.804-3.947h0.411l1.804,3.947h-0.44L330.744,481.77z
			 M330.592,481.432l-0.947-2.12l-0.947,2.12H330.592z"/>
		<path style="fill:#FFFFFF;" d="M336.957,479.239h-1.387v-0.361h3.192v0.361h-1.387v3.586h-0.417V479.239z"/>
		<path style="fill:#FFFFFF;" d="M343.063,482.346l0.164-0.321c0.282,0.276,0.784,0.479,1.302,0.479c0.739,0,1.06-0.31,1.06-0.699
			c0-1.083-2.43-0.417-2.43-1.877c0-0.581,0.451-1.083,1.455-1.083c0.446,0,0.908,0.13,1.224,0.35l-0.141,0.333
			c-0.338-0.22-0.733-0.327-1.083-0.327c-0.722,0-1.043,0.321-1.043,0.716c0,1.083,2.43,0.429,2.43,1.866
			c0,0.581-0.462,1.077-1.472,1.077C343.937,482.858,343.356,482.65,343.063,482.346z"/>
	</g>
</g>
<g>
</g>
<g>
	<path style="fill:#E20613;" d="M37.502,285.725c-0.03-0.862-0.199-1.603-0.507-2.224c-0.308-0.621-0.72-1.136-1.233-1.544
		c-0.514-0.409-1.116-0.709-1.806-0.899c-0.69-0.19-1.439-0.285-2.247-0.285c-0.72,0-1.42,0.091-2.104,0.274
		c-0.682,0.182-1.292,0.46-1.828,0.833c-0.536,0.372-0.966,0.847-1.289,1.424c-0.323,0.577-0.484,1.26-0.484,2.048
		c0,0.716,0.143,1.307,0.429,1.775c0.287,0.467,0.668,0.855,1.146,1.161c0.477,0.307,1.017,0.552,1.619,0.735
		c0.602,0.182,1.219,0.339,1.85,0.471c0.631,0.131,1.248,0.267,1.85,0.406c0.603,0.139,1.138,0.314,1.608,0.526
		c0.47,0.212,0.848,0.486,1.135,0.822c0.286,0.335,0.429,0.774,0.429,1.314c0,0.569-0.118,1.037-0.353,1.402
		c-0.235,0.365-0.543,0.654-0.925,0.865c-0.382,0.212-0.812,0.362-1.288,0.449c-0.477,0.088-0.951,0.132-1.42,0.132
		c-0.602,0-1.179-0.073-1.73-0.219c-0.55-0.146-1.035-0.372-1.453-0.679c-0.419-0.307-0.756-0.697-1.014-1.173
		c-0.257-0.475-0.385-1.041-0.385-1.698H25.52c0,0.95,0.172,1.771,0.518,2.465c0.345,0.694,0.815,1.267,1.409,1.72
		c0.595,0.453,1.285,0.788,2.07,1.008c0.786,0.219,1.619,0.329,2.5,0.329c0.72,0,1.442-0.088,2.169-0.263
		c0.727-0.176,1.384-0.449,1.972-0.822c0.587-0.372,1.068-0.855,1.442-1.446c0.375-0.592,0.562-1.303,0.562-2.136
		c0-0.76-0.143-1.399-0.429-1.917c-0.287-0.519-0.665-0.946-1.135-1.282c-0.47-0.336-1.006-0.603-1.608-0.8
		c-0.602-0.198-1.219-0.369-1.85-0.515c-0.631-0.146-1.248-0.281-1.85-0.406c-0.602-0.124-1.142-0.281-1.619-0.471
		c-0.477-0.19-0.859-0.434-1.145-0.734c-0.286-0.299-0.429-0.69-0.429-1.172c0-0.511,0.099-0.939,0.298-1.282
		c0.198-0.343,0.462-0.617,0.792-0.822c0.331-0.204,0.709-0.35,1.135-0.438c0.425-0.088,0.859-0.131,1.299-0.131
		c1.086,0,1.979,0.252,2.676,0.756c0.698,0.504,1.105,1.318,1.222,2.443H37.502L37.502,285.725z"/>
	<polygon style="fill:#E20613;" points="50.04,296.79 52.023,296.79 52.023,283.775 52.067,283.775 56.978,296.79 58.762,296.79 
		63.674,283.775 63.718,283.775 63.718,296.79 65.701,296.79 65.701,281.146 62.837,281.146 57.86,294.292 52.904,281.146 
		50.04,281.146 50.04,296.79 	"/>
	<path style="fill:#E20613;" d="M76.609,296.79h2.159l1.762-4.711h6.651l1.718,4.711h2.313l-6.145-15.644h-2.313L76.609,296.79
		L76.609,296.79z M83.855,283.03h0.044l2.621,7.296h-5.33L83.855,283.03L83.855,283.03z"/>
	<path style="fill:#E20613;" d="M104.147,288.355v-5.456h5.198c0.984,0,1.696,0.252,2.137,0.756c0.44,0.504,0.661,1.143,0.661,1.917
		c0,0.57-0.099,1.034-0.297,1.391c-0.198,0.358-0.463,0.643-0.794,0.855c-0.33,0.212-0.716,0.354-1.156,0.427
		c-0.44,0.073-0.903,0.11-1.387,0.11H104.147L104.147,288.355z M102.055,296.79h2.092v-6.683h5.11c0.499,0,0.907,0.077,1.222,0.23
		c0.315,0.153,0.569,0.358,0.76,0.614c0.191,0.255,0.331,0.555,0.418,0.898c0.088,0.343,0.162,0.705,0.22,1.084
		c0.074,0.54,0.118,1.012,0.133,1.413c0.014,0.402,0.033,0.756,0.055,1.063c0.022,0.306,0.055,0.57,0.099,0.788
		c0.043,0.219,0.139,0.416,0.286,0.592h2.334c-0.22-0.263-0.385-0.566-0.495-0.91c-0.11-0.343-0.191-0.701-0.243-1.073
		c-0.051-0.373-0.088-0.76-0.11-1.162c-0.022-0.402-0.047-0.792-0.077-1.172c-0.045-0.38-0.103-0.745-0.176-1.095
		c-0.073-0.35-0.198-0.668-0.375-0.953c-0.175-0.285-0.407-0.53-0.693-0.734c-0.287-0.205-0.657-0.351-1.113-0.439v-0.044
		c0.955-0.263,1.649-0.752,2.082-1.468c0.433-0.716,0.65-1.548,0.65-2.498c0-1.256-0.426-2.253-1.277-2.99
		c-0.852-0.738-2.019-1.106-3.502-1.106h-7.4V296.79L102.055,296.79z"/>
	<polygon style="fill:#E20613;" points="130.011,296.79 132.103,296.79 132.103,282.899 137.345,282.899 137.345,281.146 
		124.769,281.146 124.769,282.899 130.011,282.899 130.011,296.79 	"/>
	<path style="fill:#E20613;" d="M174.853,285.725c-0.029-0.862-0.199-1.603-0.507-2.224c-0.308-0.621-0.72-1.136-1.233-1.544
		c-0.514-0.409-1.116-0.709-1.806-0.899c-0.69-0.19-1.439-0.285-2.247-0.285c-0.719,0-1.42,0.091-2.103,0.274
		c-0.683,0.182-1.292,0.46-1.828,0.833c-0.536,0.372-0.966,0.847-1.288,1.424c-0.323,0.577-0.484,1.26-0.484,2.048
		c0,0.716,0.143,1.307,0.429,1.775c0.286,0.467,0.668,0.855,1.146,1.161c0.477,0.307,1.016,0.552,1.618,0.735
		c0.602,0.182,1.218,0.339,1.85,0.471c0.631,0.131,1.248,0.267,1.85,0.406c0.602,0.139,1.138,0.314,1.608,0.526
		c0.469,0.212,0.848,0.486,1.134,0.822c0.286,0.335,0.429,0.774,0.429,1.314c0,0.569-0.118,1.037-0.353,1.402
		c-0.235,0.365-0.543,0.654-0.925,0.865c-0.381,0.212-0.811,0.362-1.289,0.449c-0.477,0.088-0.951,0.132-1.42,0.132
		c-0.602,0-1.178-0.073-1.729-0.219c-0.551-0.146-1.035-0.372-1.454-0.679c-0.419-0.307-0.756-0.697-1.014-1.173
		c-0.257-0.475-0.385-1.041-0.385-1.698h-1.983c0,0.95,0.173,1.771,0.518,2.465c0.345,0.694,0.815,1.267,1.409,1.72
		c0.595,0.453,1.285,0.788,2.071,1.008c0.785,0.219,1.618,0.329,2.499,0.329c0.72,0,1.443-0.088,2.17-0.263
		c0.726-0.176,1.384-0.449,1.971-0.822c0.587-0.372,1.068-0.855,1.442-1.446c0.374-0.592,0.562-1.303,0.562-2.136
		c0-0.76-0.143-1.399-0.429-1.917c-0.287-0.519-0.665-0.946-1.135-1.282c-0.47-0.336-1.005-0.603-1.608-0.8
		c-0.602-0.198-1.218-0.369-1.85-0.515c-0.631-0.146-1.248-0.281-1.85-0.406c-0.601-0.124-1.141-0.281-1.619-0.471
		c-0.477-0.19-0.859-0.434-1.145-0.734c-0.286-0.299-0.429-0.69-0.429-1.172c0-0.511,0.099-0.939,0.297-1.282
		c0.198-0.343,0.462-0.617,0.793-0.822c0.331-0.204,0.708-0.35,1.134-0.438c0.425-0.088,0.859-0.131,1.3-0.131
		c1.087,0,1.978,0.252,2.676,0.756c0.697,0.504,1.104,1.318,1.222,2.443H174.853L174.853,285.725z"/>
	<path style="fill:#E20613;" d="M198.476,281.146h-2.093v9.991c0,1.388-0.349,2.447-1.046,3.177
		c-0.697,0.731-1.714,1.096-3.05,1.096c-1.395,0-2.471-0.365-3.227-1.096c-0.756-0.73-1.134-1.789-1.134-3.177v-9.991h-2.093v9.991
		c0,1.037,0.147,1.935,0.44,2.695c0.294,0.759,0.716,1.387,1.266,1.884c0.551,0.497,1.227,0.862,2.026,1.096
		c0.801,0.233,1.707,0.35,2.721,0.35c1.967,0,3.491-0.508,4.57-1.523c1.079-1.015,1.619-2.516,1.619-4.502V281.146L198.476,281.146z
		"/>
	<path style="fill:#E20613;" d="M211.791,288.355v-5.456h5.198c0.984,0,1.696,0.252,2.137,0.756c0.44,0.504,0.661,1.143,0.661,1.917
		c0,0.57-0.099,1.034-0.297,1.391c-0.198,0.358-0.463,0.643-0.794,0.855c-0.33,0.212-0.716,0.354-1.156,0.427
		c-0.441,0.073-0.903,0.11-1.387,0.11H211.791L211.791,288.355z M209.698,296.79h2.093v-6.683h5.11c0.499,0,0.907,0.077,1.222,0.23
		c0.316,0.153,0.569,0.358,0.76,0.614c0.191,0.255,0.33,0.555,0.418,0.898c0.088,0.343,0.162,0.705,0.22,1.084
		c0.074,0.54,0.118,1.012,0.132,1.413c0.014,0.402,0.033,0.756,0.055,1.063c0.022,0.306,0.055,0.57,0.099,0.788
		c0.044,0.219,0.139,0.416,0.286,0.592h2.334c-0.22-0.263-0.385-0.566-0.495-0.91c-0.11-0.343-0.191-0.701-0.243-1.073
		c-0.051-0.373-0.088-0.76-0.11-1.162c-0.022-0.402-0.048-0.792-0.077-1.172c-0.044-0.38-0.102-0.745-0.176-1.095
		c-0.073-0.35-0.198-0.668-0.375-0.953c-0.175-0.285-0.407-0.53-0.693-0.734c-0.287-0.205-0.657-0.351-1.113-0.439v-0.044
		c0.955-0.263,1.649-0.752,2.082-1.468c0.433-0.716,0.649-1.548,0.649-2.498c0-1.256-0.426-2.253-1.277-2.99
		c-0.851-0.738-2.019-1.106-3.502-1.106h-7.401V296.79L209.698,296.79z"/>
	<polygon style="fill:#E20613;" points="232.66,296.79 234.753,296.79 234.753,289.625 241.977,289.625 241.977,287.872 
		234.753,287.872 234.753,282.899 242.99,282.899 242.99,281.146 232.66,281.146 232.66,296.79 	"/>
	<path style="fill:#E20613;" d="M251.306,296.79h2.158l1.763-4.711h6.65l1.718,4.711h2.313l-6.145-15.644h-2.312L251.306,296.79
		L251.306,296.79z M258.552,283.03h0.043l2.621,7.296h-5.33L258.552,283.03L258.552,283.03z"/>
	<path style="fill:#E20613;" d="M288.474,285.856c-0.118-0.833-0.367-1.567-0.749-2.202c-0.381-0.636-0.859-1.165-1.431-1.589
		c-0.573-0.423-1.226-0.745-1.961-0.964c-0.734-0.219-1.512-0.328-2.334-0.328c-1.218,0-2.29,0.215-3.215,0.646
		c-0.925,0.431-1.7,1.019-2.324,1.764c-0.624,0.745-1.098,1.618-1.42,2.618c-0.323,1-0.485,2.07-0.485,3.21
		c0,1.139,0.151,2.206,0.452,3.199c0.301,0.993,0.753,1.855,1.354,2.585c0.602,0.73,1.359,1.307,2.269,1.731
		c0.91,0.423,1.974,0.635,3.193,0.635c1.996,0,3.579-0.555,4.746-1.665c1.168-1.11,1.854-2.644,2.06-4.601h-2.092
		c-0.044,0.643-0.177,1.242-0.397,1.797c-0.22,0.555-0.525,1.033-0.914,1.435c-0.389,0.402-0.852,0.716-1.387,0.942
		c-0.536,0.226-1.149,0.34-1.839,0.34c-0.939,0-1.747-0.175-2.422-0.526c-0.676-0.351-1.23-0.822-1.663-1.413
		c-0.433-0.592-0.752-1.286-0.958-2.082c-0.205-0.796-0.308-1.64-0.308-2.53c0-0.818,0.103-1.607,0.308-2.366
		c0.206-0.76,0.525-1.435,0.958-2.027c0.433-0.592,0.984-1.063,1.652-1.413c0.669-0.35,1.472-0.526,2.412-0.526
		c0.543,0,1.057,0.07,1.542,0.208c0.485,0.139,0.921,0.347,1.311,0.625c0.389,0.278,0.716,0.624,0.98,1.041
		c0.264,0.416,0.455,0.902,0.573,1.457H288.474L288.474,285.856z"/>
	<polygon style="fill:#E20613;" points="299.102,296.79 310.027,296.79 310.027,295.037 301.194,295.037 301.194,289.625 
		309.366,289.625 309.366,287.872 301.194,287.872 301.194,282.899 309.96,282.899 309.96,281.146 299.102,281.146 299.102,296.79 	
		"/>
	<path style="fill:#E20613;" d="M345.326,285.725c-0.03-0.862-0.201-1.603-0.514-2.224c-0.312-0.621-0.729-1.136-1.249-1.544
		c-0.522-0.409-1.131-0.709-1.831-0.899c-0.699-0.19-1.458-0.285-2.277-0.285c-0.729,0-1.44,0.091-2.132,0.274
		c-0.691,0.182-1.309,0.46-1.852,0.833c-0.543,0.372-0.979,0.847-1.306,1.424c-0.327,0.577-0.491,1.26-0.491,2.048
		c0,0.716,0.145,1.307,0.435,1.775c0.29,0.467,0.677,0.855,1.16,1.161c0.483,0.307,1.03,0.552,1.641,0.735
		c0.61,0.182,1.235,0.339,1.874,0.471c0.64,0.131,1.265,0.267,1.874,0.406c0.611,0.139,1.154,0.314,1.63,0.526
		c0.476,0.212,0.859,0.486,1.15,0.822c0.29,0.335,0.435,0.774,0.435,1.314c0,0.569-0.119,1.037-0.358,1.402
		c-0.238,0.365-0.55,0.654-0.937,0.865c-0.387,0.212-0.822,0.362-1.306,0.449c-0.483,0.088-0.964,0.132-1.44,0.132
		c-0.61,0-1.194-0.073-1.752-0.219c-0.558-0.146-1.049-0.372-1.473-0.679c-0.425-0.307-0.767-0.697-1.027-1.173
		c-0.26-0.475-0.39-1.041-0.39-1.698h-2.009c0,0.95,0.175,1.771,0.524,2.465c0.35,0.694,0.826,1.267,1.429,1.72
		c0.603,0.453,1.302,0.788,2.098,1.008c0.796,0.219,1.64,0.329,2.533,0.329c0.729,0,1.462-0.088,2.199-0.263
		c0.736-0.176,1.402-0.449,1.998-0.822c0.595-0.372,1.082-0.855,1.462-1.446c0.379-0.592,0.569-1.303,0.569-2.136
		c0-0.76-0.145-1.399-0.435-1.917c-0.291-0.519-0.673-0.946-1.15-1.282c-0.476-0.336-1.019-0.603-1.629-0.8
		c-0.61-0.198-1.235-0.369-1.875-0.515c-0.64-0.146-1.265-0.281-1.875-0.406c-0.61-0.124-1.157-0.281-1.641-0.471
		c-0.484-0.19-0.87-0.434-1.16-0.734c-0.29-0.299-0.435-0.69-0.435-1.172c0-0.511,0.1-0.939,0.301-1.282
		c0.2-0.343,0.468-0.617,0.803-0.822c0.335-0.204,0.718-0.35,1.149-0.438c0.432-0.088,0.87-0.131,1.317-0.131
		c1.102,0,2.005,0.252,2.712,0.756c0.707,0.504,1.119,1.318,1.238,2.443H345.326L345.326,285.725z"/>
	<path style="fill:#E20613;" d="M369.817,285.856c-0.119-0.833-0.372-1.567-0.759-2.202c-0.387-0.636-0.871-1.165-1.451-1.589
		c-0.581-0.423-1.243-0.745-1.987-0.964c-0.744-0.219-1.532-0.328-2.366-0.328c-1.235,0-2.322,0.215-3.259,0.646
		c-0.937,0.431-1.723,1.019-2.355,1.764c-0.632,0.745-1.112,1.618-1.439,2.618c-0.328,1-0.492,2.07-0.492,3.21
		c0,1.139,0.153,2.206,0.457,3.199c0.306,0.993,0.763,1.855,1.373,2.585c0.61,0.73,1.377,1.307,2.299,1.731
		c0.923,0.423,2.001,0.635,3.237,0.635c2.023,0,3.627-0.555,4.81-1.665c1.183-1.11,1.878-2.644,2.087-4.601h-2.12
		c-0.045,0.643-0.179,1.242-0.402,1.797c-0.223,0.555-0.532,1.033-0.926,1.435c-0.395,0.402-0.863,0.716-1.406,0.942
		c-0.543,0.226-1.164,0.34-1.863,0.34c-0.952,0-1.771-0.175-2.456-0.526c-0.684-0.351-1.246-0.822-1.685-1.413
		c-0.439-0.592-0.762-1.286-0.971-2.082c-0.208-0.796-0.312-1.64-0.312-2.53c0-0.818,0.104-1.607,0.312-2.366
		c0.209-0.76,0.532-1.435,0.971-2.027c0.439-0.592,0.998-1.063,1.674-1.413c0.678-0.35,1.492-0.526,2.444-0.526
		c0.55,0,1.072,0.07,1.562,0.208c0.491,0.139,0.934,0.347,1.328,0.625c0.394,0.278,0.725,0.624,0.993,1.041
		c0.268,0.416,0.461,0.902,0.58,1.457H369.817L369.817,285.856z"/>
	<polygon style="fill:#E20613;" points="380.625,296.79 382.746,296.79 382.746,281.146 380.625,281.146 380.625,296.79 	"/>
	<polygon style="fill:#E20613;" points="394.247,296.79 405.317,296.79 405.317,295.037 396.367,295.037 396.367,289.625 
		404.647,289.625 404.647,287.872 396.367,287.872 396.367,282.899 405.25,282.899 405.25,281.146 394.247,281.146 394.247,296.79 	
		"/>
	<polygon style="fill:#E20613;" points="415.791,296.79 417.8,296.79 417.8,284.235 417.844,284.235 426.17,296.79 428.491,296.79 
		428.491,281.146 426.482,281.146 426.482,293.832 426.437,293.832 418.045,281.146 415.791,281.146 415.791,296.79 	"/>
	<path style="fill:#E20613;" d="M453.182,285.856c-0.119-0.833-0.372-1.567-0.759-2.202c-0.387-0.636-0.871-1.165-1.451-1.589
		c-0.581-0.423-1.243-0.745-1.987-0.964c-0.744-0.219-1.532-0.328-2.366-0.328c-1.235,0-2.322,0.215-3.259,0.646
		c-0.938,0.431-1.722,1.019-2.355,1.764c-0.632,0.745-1.112,1.618-1.44,2.618c-0.328,1-0.492,2.07-0.492,3.21
		c0,1.139,0.153,2.206,0.458,3.199c0.305,0.993,0.763,1.855,1.372,2.585c0.61,0.73,1.377,1.307,2.299,1.731
		c0.922,0.423,2.001,0.635,3.236,0.635c2.023,0,3.627-0.555,4.81-1.665c1.183-1.11,1.878-2.644,2.087-4.601h-2.12
		c-0.045,0.643-0.179,1.242-0.402,1.797c-0.223,0.555-0.531,1.033-0.926,1.435c-0.394,0.402-0.863,0.716-1.406,0.942
		c-0.543,0.226-1.164,0.34-1.863,0.34c-0.952,0-1.771-0.175-2.456-0.526c-0.684-0.351-1.246-0.822-1.685-1.413
		c-0.439-0.592-0.762-1.286-0.971-2.082c-0.208-0.796-0.312-1.64-0.312-2.53c0-0.818,0.104-1.607,0.312-2.366
		c0.209-0.76,0.532-1.435,0.971-2.027c0.439-0.592,0.998-1.063,1.674-1.413c0.678-0.35,1.492-0.526,2.444-0.526
		c0.551,0,1.072,0.07,1.562,0.208c0.492,0.139,0.934,0.347,1.328,0.625c0.394,0.278,0.725,0.624,0.993,1.041
		c0.268,0.416,0.461,0.902,0.58,1.457H453.182L453.182,285.856z"/>
	<polygon style="fill:#E20613;" points="463.902,296.79 474.972,296.79 474.972,295.037 466.022,295.037 466.022,289.625 
		474.303,289.625 474.303,287.872 466.022,287.872 466.022,282.899 474.906,282.899 474.906,281.146 463.902,281.146 
		463.902,296.79 	"/>
	<polygon style="fill-rule:evenodd;clip-rule:evenodd;fill:#E20613;" points="145.917,204.257 148.431,204.257 154.638,204.257 
		192.71,204.257 192.71,212.787 154.638,212.787 154.638,230.358 186.523,230.358 186.523,238.888 154.638,238.888 154.638,261.459 
		192.71,261.459 192.71,269.989 154.638,269.989 148.431,269.989 145.917,269.989 145.917,204.257 	"/>
	<polygon style="fill-rule:evenodd;clip-rule:evenodd;fill:#E20613;" points="264.333,204.678 273.055,204.678 273.055,230.949 
		308.413,230.949 308.413,204.678 317.135,204.678 317.135,270.411 308.413,270.411 308.413,239.479 273.055,239.479 
		273.055,270.411 264.333,270.411 264.333,204.678 	"/>
	<polygon style="fill-rule:evenodd;clip-rule:evenodd;fill:#E20613;" points="89.801,212.787 89.801,204.257 139.198,204.257 
		139.198,212.787 118.86,212.787 118.86,269.989 110.139,269.989 110.139,212.787 89.801,212.787 	"/>
	<polygon style="fill-rule:evenodd;clip-rule:evenodd;fill:#E20613;" points="390.386,204.678 399.108,204.678 399.108,270.411 
		390.386,270.411 390.386,204.678 	"/>
	<path style="fill-rule:evenodd;clip-rule:evenodd;fill:#E20613;" d="M327.091,204.678h1.587h8.08h13.803
		c4.594,0,11.584,0.61,15.728,2.441c6.154,2.719,10.991,7.923,13.215,14.32c1.495,4.301,1.721,10.127,1.721,14.64v34.331h-9.666
		v-34.524c0-4.161,0.477-8.418-1.178-12.333c-1.392-3.289-3.929-5.99-7.099-7.597c-2.055-1.041-9.27-1.494-12.333-1.611h-14.19
		v56.066h-9.666V204.678L327.091,204.678z"/>
	<path style="fill-rule:evenodd;clip-rule:evenodd;fill:#E20613;" d="M439.829,211.189c13.827,0,25.035,11.495,25.035,25.675
		c0,5.9-1.942,11.335-5.204,15.67l-16.405-18.871l-6.951,6.042l16.578,19.071c-3.8,2.387-8.27,3.762-13.052,3.762
		c-13.826,0-25.034-11.495-25.034-25.674C414.795,222.684,426.003,211.189,439.829,211.189L439.829,211.189z M465.23,258.943
		l7.888,9.073l1.882,2.085h-12.272l-4.317-4.966c-5.311,3.634-11.704,5.754-18.582,5.754c-18.439,0-33.387-15.234-33.387-34.026
		c0-18.793,14.948-34.026,33.387-34.026c18.439,0,33.386,15.234,33.386,34.026C473.215,245.29,470.209,253.001,465.23,258.943
		L465.23,258.943z"/>
	<path style="fill-rule:evenodd;clip-rule:evenodd;fill:#E20613;" d="M58.387,211.189c7.989,0,15.104,3.838,19.688,9.814h9.854
		c-5.595-10.802-16.723-18.166-29.542-18.166C39.948,202.838,25,218.071,25,236.863c0,18.793,14.948,34.027,33.387,34.027
		c18.226,0,33.04-14.887,33.378-33.381h-8.352v0.001H51.521v8.53h30.251c-3.601,9.648-12.712,16.498-23.386,16.498
		c-13.826,0-25.034-11.495-25.034-25.674C33.352,222.684,44.561,211.189,58.387,211.189L58.387,211.189z"/>
	<path style="fill-rule:evenodd;clip-rule:evenodd;fill:#E20613;" d="M226.585,211.189c7.989,0,15.104,3.838,19.688,9.814h9.854
		c-5.595-10.802-16.724-18.166-29.542-18.166c-18.44,0-33.387,15.234-33.387,34.025c0,18.793,14.947,34.027,33.387,34.027
		c12.9,0,24.09-7.457,29.649-18.374h-9.806c-4.577,6.094-11.763,10.022-19.844,10.022c-13.826,0-25.034-11.495-25.034-25.674
		C201.551,222.684,212.759,211.189,226.585,211.189L226.585,211.189z"/>
</g>
</svg>
