<?xml version="1.0" encoding="UTF-8" standalone="no"?>
<svg
   xmlns:dc="http://purl.org/dc/elements/1.1/"
   xmlns:cc="http://creativecommons.org/ns#"
   xmlns:rdf="http://www.w3.org/1999/02/22-rdf-syntax-ns#"
   xmlns:svg="http://www.w3.org/2000/svg"
   xmlns="http://www.w3.org/2000/svg"
   viewBox="0 0 309.33334 66.666664"
   height="66.666664"
   width="309.33334"
   xml:space="preserve"
   id="svg2"
   version="1.1"><metadata
     id="metadata8"><rdf:RDF><cc:Work
         rdf:about=""><dc:format>image/svg+xml</dc:format><dc:type
           rdf:resource="http://purl.org/dc/dcmitype/StillImage" /></cc:Work></rdf:RDF></metadata><defs
     id="defs6" /><g
     transform="matrix(1.3333333,0,0,-1.3333333,0,66.666667)"
     id="g10"><g
       transform="scale(0.1)"
       id="g12"><path
         id="path14"
         style="fill:#ed1c24;fill-opacity:1;fill-rule:nonzero;stroke:none"
         d="m 69.6484,65.9609 c -0.1523,4.4297 -1.0195,8.2344 -2.6054,11.4258 -1.5821,3.1875 -3.6953,5.8321 -6.336,7.9336 -2.6406,2.1016 -5.7304,3.6406 -9.2773,4.6133 -3.543,0.9766 -7.3906,1.4648 -11.5391,1.4648 -3.6953,0 -7.2968,-0.4687 -10.8047,-1.4062 -3.5039,-0.9375 -6.6367,-2.3633 -9.3906,-4.2774 -2.75,-1.914 -4.9609,-4.3515 -6.6172,-7.3164 -1.6601,-2.9609 -2.4883,-6.4726 -2.4883,-10.5234 0,-3.6758 0.7344,-6.7148 2.2032,-9.1172 1.4726,-2.3984 3.4336,-4.3906 5.8867,-5.9609 2.4492,-1.5781 5.2226,-2.836 8.3125,-3.7735 3.0937,-0.9375 6.2617,-1.7461 9.5039,-2.4179 3.2422,-0.6758 6.4141,-1.3711 9.5039,-2.086 3.0938,-0.7109 5.8477,-1.6132 8.2578,-2.6992 2.418,-1.0898 4.3555,-2.4961 5.8281,-4.2226 1.4727,-1.7227 2.2071,-3.9766 2.2071,-6.75 0,-2.9258 -0.6055,-5.3282 -1.8125,-7.2032 -1.2032,-1.8789 -2.7891,-3.3593 -4.75,-4.4453 -1.961,-1.0898 -4.168,-1.8594 -6.6172,-2.3086 -2.4531,-0.4492 -4.8867,-0.6758 -7.2969,-0.6758 -3.0937,0 -6.0547,0.375 -8.8867,1.125 -2.8242,0.75 -5.3125,1.9141 -7.4609,3.4883 -2.1524,1.5782 -3.8829,3.5821 -5.2071,6.0235 -1.3203,2.4375 -1.9804,5.3476 -1.9804,8.7226 H 8.10156 c 0,-4.8789 0.88282,-9.0976 2.65624,-12.6601 1.7735,-3.5664 4.1836,-6.5118 7.2422,-8.836 3.0547,-2.3281 6.5977,-4.0508 10.6328,-5.17576 4.0391,-1.1289 8.3164,-1.6914 12.8438,-1.6914 3.6953,0 7.4062,0.44922 11.1406,1.35156 3.7344,0.89844 7.1094,2.3047 10.1289,4.2188 3.0117,1.914 5.4844,4.3906 7.4062,7.4296 1.9258,3.0391 2.8907,6.6954 2.8907,10.9727 0,3.9023 -0.7383,7.1875 -2.2071,9.8477 -1.4726,2.664 -3.414,4.8593 -5.8281,6.5859 -2.4101,1.7266 -5.164,3.0937 -8.2617,4.1055 -3.0898,1.0156 -6.2578,1.8984 -9.5039,2.6445 -3.2383,0.7539 -6.4063,1.4453 -9.5,2.0859 -3.0938,0.6367 -5.8672,1.4414 -8.3164,2.418 -2.4531,0.9766 -4.4102,2.2305 -5.8828,3.7734 -1.4727,1.5352 -2.2071,3.543 -2.2071,6.0196 0,2.625 0.5079,4.8203 1.5313,6.5859 1.0156,1.7617 2.3711,3.168 4.0703,4.2188 1.6953,1.0507 3.6367,1.8007 5.8281,2.25 2.1836,0.4531 4.4102,0.6757 6.6719,0.6757 5.582,0 10.1641,-1.2968 13.7461,-3.8828 3.5859,-2.5898 5.6758,-6.7734 6.2812,-12.5508 h 10.1836" /><path
         id="path16"
         style="fill:#ed1c24;fill-opacity:1;fill-rule:nonzero;stroke:none"
         d="m 134.055,9.125 h 10.183 v 66.8555 h 0.227 L 169.695,9.125 h 9.164 l 25.231,66.8555 h 0.223 V 9.125 H 214.5 V 89.4844 H 199.789 L 174.223,21.9531 148.762,89.4844 H 134.055 V 9.125" /><path
         id="path18"
         style="fill:#ed1c24;fill-opacity:1;fill-rule:nonzero;stroke:none"
         d="m 270.535,9.125 h 11.09 l 9.051,24.1992 H 324.84 L 333.664,9.125 h 11.879 L 313.98,89.4844 h -11.878 z m 37.223,70.6797 h 0.226 l 13.461,-37.4766 h -27.379 l 13.692,37.4766" /><path
         id="path20"
         style="fill:#ed1c24;fill-opacity:1;fill-rule:nonzero;stroke:none"
         d="m 411.992,52.4531 v 28.0274 h 26.699 c 5.055,0 8.715,-1.293 10.977,-3.8828 2.262,-2.586 3.391,-5.8711 3.391,-9.8477 0,-2.9258 -0.508,-5.3086 -1.524,-7.1445 -1.019,-1.8399 -2.379,-3.3047 -4.078,-4.3907 -1.695,-1.0898 -3.676,-1.8203 -5.937,-2.1953 -2.262,-0.375 -4.637,-0.5664 -7.125,-0.5664 z M 401.246,9.125 h 10.746 v 34.3281 h 26.246 c 2.567,0 4.66,-0.3945 6.282,-1.1836 1.621,-0.789 2.921,-1.8359 3.902,-3.1523 0.98,-1.3125 1.699,-2.8477 2.148,-4.6133 0.453,-1.7656 0.832,-3.6211 1.133,-5.5703 0.379,-2.7773 0.602,-5.1953 0.68,-7.2617 0.074,-2.0625 0.168,-3.8828 0.281,-5.4571 0.113,-1.5742 0.281,-2.9257 0.512,-4.0507 0.222,-1.125 0.715,-2.1368 1.469,-3.0391 h 11.988 c -1.129,1.3477 -1.973,2.9063 -2.539,4.6719 -0.567,1.7617 -0.981,3.5976 -1.25,5.5117 -0.258,1.9141 -0.449,3.9023 -0.563,5.9687 -0.113,2.0625 -0.242,4.0704 -0.394,6.0196 -0.231,1.9492 -0.528,3.8281 -0.907,5.625 -0.378,1.8008 -1.019,3.4336 -1.925,4.8984 -0.903,1.461 -2.09,2.7188 -3.559,3.7695 -1.476,1.0508 -3.379,1.8008 -5.719,2.254 v 0.2226 c 4.903,1.3516 8.469,3.8633 10.696,7.5391 2.222,3.6797 3.336,7.957 3.336,12.8359 0,6.4492 -2.188,11.5703 -6.563,15.3594 -4.375,3.789 -10.371,5.6836 -17.988,5.6836 H 401.246 V 9.125" /><path
         id="path22"
         style="fill:#ed1c24;fill-opacity:1;fill-rule:nonzero;stroke:none"
         d="m 544.848,9.125 h 10.75 v 71.3555 h 26.925 v 9.0039 h -64.601 v -9.0039 h 26.926 V 9.125" /><path
         id="path24"
         style="fill:#ed1c24;fill-opacity:1;fill-rule:nonzero;stroke:none"
         d="m 775.195,65.9609 c -0.152,4.4297 -1.019,8.2344 -2.605,11.4258 -1.582,3.1875 -3.695,5.8321 -6.336,7.9336 -2.641,2.1016 -5.731,3.6406 -9.277,4.6133 -3.543,0.9766 -7.391,1.4648 -11.539,1.4648 -3.696,0 -7.297,-0.4687 -10.805,-1.4062 -3.504,-0.9375 -6.637,-2.3633 -9.391,-4.2774 -2.754,-1.914 -4.961,-4.3515 -6.617,-7.3164 -1.66,-2.9609 -2.488,-6.4726 -2.488,-10.5234 0,-3.6758 0.734,-6.7148 2.207,-9.1172 1.469,-2.3984 3.429,-4.3906 5.883,-5.9609 2.449,-1.5781 5.222,-2.836 8.316,-3.7735 3.09,-0.9375 6.258,-1.7461 9.5,-2.4179 3.242,-0.6758 6.414,-1.3711 9.504,-2.086 3.094,-0.7109 5.848,-1.6132 8.262,-2.6992 2.41,-1.0898 4.355,-2.4961 5.824,-4.2226 1.472,-1.7227 2.207,-3.9766 2.207,-6.75 0,-2.9258 -0.606,-5.3282 -1.813,-7.2032 -1.203,-1.8789 -2.789,-3.3593 -4.75,-4.4453 -1.961,-1.0898 -4.168,-1.8594 -6.621,-2.3086 -2.449,-0.4492 -4.883,-0.6758 -7.297,-0.6758 -3.089,0 -6.05,0.375 -8.879,1.125 -2.828,0.75 -5.316,1.9141 -7.468,3.4883 -2.149,1.5782 -3.883,3.5821 -5.207,6.0235 -1.317,2.4375 -1.973,5.3476 -1.973,8.7226 h -10.187 c 0,-4.8789 0.886,-9.0976 2.66,-12.6601 1.773,-3.5664 4.187,-6.5118 7.238,-8.836 3.059,-2.3281 6.602,-4.0508 10.641,-5.17576 4.031,-1.1289 8.312,-1.6914 12.836,-1.6914 3.699,0 7.414,0.44922 11.148,1.35156 3.73,0.89844 7.109,2.3047 10.125,4.2188 3.016,1.914 5.484,4.3906 7.41,7.4296 1.922,3.0391 2.883,6.6954 2.883,10.9727 0,3.9023 -0.734,7.1875 -2.203,9.8477 -1.473,2.664 -3.414,4.8593 -5.828,6.5859 -2.414,1.7266 -5.164,3.0937 -8.262,4.1055 -3.09,1.0156 -6.258,1.8984 -9.5,2.6445 -3.242,0.7539 -6.414,1.4453 -9.504,2.0859 -3.09,0.6367 -5.863,1.4414 -8.316,2.418 -2.45,0.9766 -4.414,2.2305 -5.883,3.7734 -1.469,1.5352 -2.207,3.543 -2.207,6.0196 0,2.625 0.508,4.8203 1.527,6.5859 1.02,1.7617 2.375,3.168 4.074,4.2188 1.7,1.0507 3.637,1.8007 5.825,2.25 2.187,0.4531 4.414,0.6757 6.675,0.6757 5.582,0 10.164,-1.2968 13.75,-3.8828 3.579,-2.5898 5.672,-6.7734 6.274,-12.5508 h 10.187" /><path
         id="path26"
         style="fill:#ed1c24;fill-opacity:1;fill-rule:nonzero;stroke:none"
         d="M 896.539,89.4844 H 885.793 V 38.1641 c 0,-7.1289 -1.793,-12.5703 -5.375,-16.3203 -3.582,-3.754 -8.805,-5.629 -15.668,-5.629 -7.168,0 -12.691,1.875 -16.578,5.629 -3.883,3.75 -5.824,9.1914 -5.824,16.3203 v 51.3203 h -10.75 V 38.1641 c 0,-5.3282 0.754,-9.9414 2.261,-13.8477 1.512,-3.8984 3.68,-7.125 6.508,-9.6758 2.828,-2.5508 6.301,-4.4258 10.406,-5.62888 4.114,-1.19922 8.77,-1.80078 13.977,-1.80078 10.105,0 17.93,2.60937 23.477,7.82426 5.543,5.2109 8.312,12.9218 8.312,23.1289 v 51.3203" /><path
         id="path28"
         style="fill:#ed1c24;fill-opacity:1;fill-rule:nonzero;stroke:none"
         d="m 964.938,52.4531 v 28.0274 h 26.699 c 5.054,0 8.713,-1.293 10.973,-3.8828 2.27,-2.586 3.39,-5.8711 3.39,-9.8477 0,-2.9258 -0.5,-5.3086 -1.52,-7.1445 -1.02,-1.8399 -2.38,-3.3047 -4.08,-4.3907 -1.689,-1.0898 -3.673,-1.8203 -5.935,-2.1953 -2.262,-0.375 -4.637,-0.5664 -7.125,-0.5664 z M 954.188,9.125 h 10.75 v 34.3281 h 26.25 c 2.562,0 4.656,-0.3945 6.277,-1.1836 1.621,-0.789 2.925,-1.8359 3.905,-3.1523 0.98,-1.3125 1.7,-2.8477 2.15,-4.6133 0.45,-1.7656 0.83,-3.6211 1.13,-5.5703 0.38,-2.7773 0.6,-5.1953 0.68,-7.2617 0.07,-2.0625 0.17,-3.8828 0.28,-5.4571 0.12,-1.5742 0.28,-2.9257 0.51,-4.0507 0.22,-1.125 0.72,-2.1368 1.47,-3.0391 h 11.99 c -1.13,1.3477 -1.97,2.9063 -2.54,4.6719 -0.57,1.7617 -0.98,3.5976 -1.25,5.5117 -0.26,1.9141 -0.45,3.9023 -0.56,5.9687 -0.12,2.0625 -0.25,4.0704 -0.4,6.0196 -0.23,1.9492 -0.53,3.8281 -0.9,5.625 -0.38,1.8008 -1.02,3.4336 -1.93,4.8984 -0.9,1.461 -2.09,2.7188 -3.56,3.7695 -1.48,1.0508 -3.37,1.8008 -5.72,2.254 v 0.2226 c 4.91,1.3516 8.47,3.8633 10.7,7.5391 2.22,3.6797 3.33,7.957 3.33,12.8359 0,6.4492 -2.18,11.5703 -6.56,15.3594 -4.37,3.789 -10.37,5.6836 -17.987,5.6836 H 954.188 V 9.125" /><path
         id="path30"
         style="fill:#ed1c24;fill-opacity:1;fill-rule:nonzero;stroke:none"
         d="m 1072.14,9.125 h 10.75 V 45.9297 H 1120 v 9.0039 h -37.11 v 25.5469 h 42.32 v 9.0039 h -53.07 V 9.125" /><path
         id="path32"
         style="fill:#ed1c24;fill-opacity:1;fill-rule:nonzero;stroke:none"
         d="m 1167.92,9.125 h 11.09 l 9.05,24.1992 h 34.16 l 8.83,-24.1992 h 11.88 l -31.57,80.3594 h -11.87 z m 37.22,70.6797 h 0.23 l 13.46,-37.4766 h -27.38 l 13.69,37.4766" /><path
         id="path34"
         style="fill:#ed1c24;fill-opacity:1;fill-rule:nonzero;stroke:none"
         d="m 1358.84,65.2891 c -0.6,4.2773 -1.88,8.0468 -3.84,11.3086 -1.96,3.2656 -4.41,5.9843 -7.36,8.1601 -2.94,2.1758 -6.29,3.8281 -10.07,4.9531 -3.77,1.125 -7.76,1.6875 -11.99,1.6875 -6.26,0 -11.76,-1.1054 -16.51,-3.3203 -4.76,-2.2148 -8.73,-5.2343 -11.94,-9.0586 -3.21,-3.8281 -5.64,-8.3125 -7.3,-13.4531 -1.66,-5.1367 -2.49,-10.6328 -2.49,-16.4883 0,-5.8515 0.78,-11.3281 2.32,-16.4336 1.55,-5.1015 3.87,-9.5234 6.96,-13.2773 3.09,-3.75 6.98,-6.7149 11.65,-8.8945 4.68,-2.17192 10.15,-3.26176 16.41,-3.26176 10.25,0 18.38,2.85156 24.38,8.55466 5.99,5.6992 9.52,13.5821 10.58,23.6367 h -10.75 c -0.23,-3.3046 -0.91,-6.3789 -2.04,-9.2304 -1.13,-2.8516 -2.69,-5.3086 -4.69,-7.3711 -2,-2.0664 -4.37,-3.6797 -7.13,-4.8399 -2.75,-1.164 -5.9,-1.7461 -9.45,-1.7461 -4.82,0 -8.97,0.9024 -12.44,2.6993 -3.47,1.8047 -6.32,4.2226 -8.54,7.2617 -2.23,3.039 -3.87,6.6055 -4.92,10.6914 -1.06,4.0898 -1.59,8.4258 -1.59,13 0,4.2031 0.53,8.2539 1.59,12.1562 1.05,3.9024 2.69,7.3711 4.92,10.4102 2.22,3.0391 5.05,5.4609 8.48,7.2578 3.44,1.8008 7.56,2.7031 12.39,2.7031 2.79,0 5.43,-0.3554 7.92,-1.0664 2.49,-0.7148 4.73,-1.7851 6.73,-3.2109 2,-1.4258 3.68,-3.207 5.04,-5.3477 1.36,-2.1367 2.33,-4.6289 2.94,-7.4804 h 10.74" /><path
         id="path36"
         style="fill:#ed1c24;fill-opacity:1;fill-rule:nonzero;stroke:none"
         d="m 1413.44,9.125 h 56.12 v 9.0039 h -45.37 v 27.8008 h 41.97 v 9.0039 h -41.97 v 25.5469 h 45.03 v 9.0039 h -55.78 V 9.125" /><path
         id="path38"
         style="fill:#ed1c24;fill-opacity:1;fill-rule:nonzero;stroke:none"
         d="m 1650.88,65.9609 c -0.15,4.4297 -1.03,8.2344 -2.63,11.4258 -1.61,3.1875 -3.75,5.8321 -6.42,7.9336 -2.68,2.1016 -5.81,3.6406 -9.4,4.6133 -3.6,0.9766 -7.5,1.4648 -11.7,1.4648 -3.75,0 -7.39,-0.4687 -10.95,-1.4062 -3.55,-0.9375 -6.73,-2.3633 -9.51,-4.2774 -2.79,-1.914 -5.03,-4.3515 -6.71,-7.3164 -1.68,-2.9609 -2.52,-6.4726 -2.52,-10.5234 0,-3.6758 0.74,-6.7148 2.23,-9.1172 1.49,-2.3984 3.48,-4.3906 5.96,-5.9609 2.49,-1.5781 5.3,-2.836 8.43,-3.7735 3.13,-0.9375 6.35,-1.7461 9.63,-2.4179 3.29,-0.6758 6.5,-1.3711 9.63,-2.086 3.13,-0.7109 5.93,-1.6132 8.37,-2.6992 2.45,-1.0898 4.41,-2.4961 5.91,-4.2226 1.49,-1.7227 2.23,-3.9766 2.23,-6.75 0,-2.9258 -0.61,-5.3282 -1.84,-7.2032 -1.21,-1.8789 -2.82,-3.3593 -4.81,-4.4453 -1.98,-1.0898 -4.22,-1.8594 -6.71,-2.3086 -2.48,-0.4492 -4.94,-0.6758 -7.39,-0.6758 -3.14,0 -6.13,0.375 -9,1.125 -2.87,0.75 -5.39,1.9141 -7.57,3.4883 -2.18,1.5782 -3.93,3.5821 -5.27,6.0235 -1.34,2.4375 -2,5.3476 -2,8.7226 h -10.32 c 0,-4.8789 0.89,-9.0976 2.69,-12.6601 1.79,-3.5664 4.24,-6.5118 7.34,-8.836 3.09,-2.3281 6.68,-4.0508 10.77,-5.17576 4.09,-1.1289 8.43,-1.6914 13.02,-1.6914 3.74,0 7.51,0.44922 11.29,1.35156 3.78,0.89844 7.2,2.3047 10.26,4.2188 3.06,1.914 5.56,4.3906 7.51,7.4296 1.95,3.0391 2.92,6.6954 2.92,10.9727 0,3.9023 -0.74,7.1875 -2.23,9.8477 -1.5,2.664 -3.46,4.8593 -5.91,6.5859 -2.44,1.7266 -5.23,3.0937 -8.37,4.1055 -3.13,1.0156 -6.34,1.8984 -9.63,2.6445 -3.28,0.7539 -6.5,1.4453 -9.63,2.0859 -3.13,0.6367 -5.94,1.4414 -8.42,2.418 -2.49,0.9766 -4.47,2.2305 -5.97,3.7734 -1.49,1.5352 -2.23,3.543 -2.23,6.0196 0,2.625 0.52,4.8203 1.55,6.5859 1.03,1.7617 2.4,3.168 4.12,4.2188 1.72,1.0507 3.69,1.8007 5.91,2.25 2.21,0.4531 4.47,0.6757 6.76,0.6757 5.66,0 10.3,-1.2968 13.93,-3.8828 3.63,-2.5898 5.75,-6.7734 6.36,-12.5508 h 10.32" /><path
         id="path40"
         style="fill:#ed1c24;fill-opacity:1;fill-rule:nonzero;stroke:none"
         d="m 1776.69,65.2891 c -0.61,4.2773 -1.91,8.0468 -3.9,11.3086 -1.99,3.2656 -4.47,5.9843 -7.45,8.1601 -2.98,2.1758 -6.38,3.8281 -10.21,4.9531 -3.82,1.125 -7.87,1.6875 -12.15,1.6875 -6.34,0 -11.92,-1.1054 -16.74,-3.3203 -4.81,-2.2148 -8.85,-5.2343 -12.1,-9.0586 -3.24,-3.8281 -5.71,-8.3125 -7.39,-13.4531 -1.68,-5.1367 -2.52,-10.6328 -2.52,-16.4883 0,-5.8515 0.78,-11.3281 2.35,-16.4336 1.57,-5.1015 3.92,-9.5234 7.05,-13.2773 3.13,-3.75 7.07,-6.7149 11.81,-8.8945 4.74,-2.17192 10.28,-3.26176 16.62,-3.26176 10.4,0 18.64,2.85156 24.71,8.55466 6.08,5.6992 9.65,13.5821 10.72,23.6367 h -10.89 c -0.23,-3.3046 -0.92,-6.3789 -2.06,-9.2304 -1.15,-2.8516 -2.74,-5.3086 -4.76,-7.3711 -2.03,-2.0664 -4.44,-3.6797 -7.23,-4.8399 -2.78,-1.164 -5.98,-1.7461 -9.57,-1.7461 -4.89,0 -9.09,0.9024 -12.61,2.6993 -3.52,1.8047 -6.4,4.2226 -8.66,7.2617 -2.25,3.039 -3.91,6.6055 -4.98,10.6914 -1.07,4.0898 -1.61,8.4258 -1.61,13 0,4.2031 0.54,8.2539 1.61,12.1562 1.07,3.9024 2.73,7.3711 4.98,10.4102 2.26,3.0391 5.13,5.4609 8.6,7.2578 3.48,1.8008 7.67,2.7031 12.56,2.7031 2.82,0 5.5,-0.3554 8.02,-1.0664 2.52,-0.7148 4.8,-1.7851 6.82,-3.2109 2.03,-1.4258 3.73,-3.207 5.11,-5.3477 1.37,-2.1367 2.37,-4.6289 2.98,-7.4804 h 10.89" /><path
         id="path42"
         style="fill:#ed1c24;fill-opacity:1;fill-rule:nonzero;stroke:none"
         d="m 1832.21,9.125 h 10.9 v 80.3594 h -10.9 V 9.125" /><path
         id="path44"
         style="fill:#ed1c24;fill-opacity:1;fill-rule:nonzero;stroke:none"
         d="m 1902.18,9.125 h 56.87 v 9.0039 h -45.98 v 27.8008 h 42.54 v 9.0039 h -42.54 v 25.5469 h 45.63 v 9.0039 h -56.52 V 9.125" /><path
         id="path46"
         style="fill:#ed1c24;fill-opacity:1;fill-rule:nonzero;stroke:none"
         d="m 2012.85,9.125 h 10.32 v 64.4922 h 0.23 L 2066.16,9.125 h 11.93 v 80.3594 h -10.32 v -65.168 h -0.23 l -43.11,65.168 h -11.58 V 9.125" /><path
         id="path48"
         style="fill:#ed1c24;fill-opacity:1;fill-rule:nonzero;stroke:none"
         d="m 2204.93,65.2891 c -0.62,4.2773 -1.91,8.0468 -3.9,11.3086 -1.99,3.2656 -4.48,5.9843 -7.46,8.1601 -2.98,2.1758 -6.38,3.8281 -10.2,4.9531 -3.82,1.125 -7.87,1.6875 -12.15,1.6875 -6.34,0 -11.93,-1.1054 -16.74,-3.3203 -4.82,-2.2148 -8.85,-5.2343 -12.1,-9.0586 -3.24,-3.8281 -5.71,-8.3125 -7.39,-13.4531 -1.69,-5.1367 -2.53,-10.6328 -2.53,-16.4883 0,-5.8515 0.79,-11.3281 2.36,-16.4336 1.56,-5.1015 3.91,-9.5234 7.04,-13.2773 3.14,-3.75 7.08,-6.7149 11.82,-8.8945 4.73,-2.17192 10.28,-3.26176 16.62,-3.26176 10.4,0 18.63,2.85156 24.71,8.55466 6.07,5.6992 9.65,13.5821 10.72,23.6367 h -10.89 c -0.23,-3.3046 -0.92,-6.3789 -2.07,-9.2304 -1.14,-2.8516 -2.73,-5.3086 -4.76,-7.3711 -2.02,-2.0664 -4.43,-3.6797 -7.22,-4.8399 -2.79,-1.164 -5.98,-1.7461 -9.57,-1.7461 -4.9,0 -9.1,0.9024 -12.61,2.6993 -3.52,1.8047 -6.41,4.2226 -8.66,7.2617 -2.26,3.039 -3.92,6.6055 -4.99,10.6914 -1.07,4.0898 -1.6,8.4258 -1.6,13 0,4.2031 0.53,8.2539 1.6,12.1562 1.07,3.9024 2.73,7.3711 4.99,10.4102 2.25,3.0391 5.12,5.4609 8.6,7.2578 3.48,1.8008 7.66,2.7031 12.55,2.7031 2.83,0 5.51,-0.3554 8.03,-1.0664 2.52,-0.7148 4.79,-1.7851 6.82,-3.2109 2.02,-1.4258 3.73,-3.207 5.1,-5.3477 1.38,-2.1367 2.37,-4.6289 2.99,-7.4804 h 10.89" /><path
         id="path50"
         style="fill:#ed1c24;fill-opacity:1;fill-rule:nonzero;stroke:none"
         d="m 2259.99,9.125 h 56.87 v 9.0039 h -45.98 v 27.8008 h 42.54 v 9.0039 h -42.54 v 25.5469 h 45.63 v 9.0039 h -56.52 V 9.125" /><path
         id="path52"
         style="fill:#ed1c24;fill-opacity:1;fill-rule:evenodd;stroke:none"
         d="M 626.559,484.449 H 866.922 V 440.633 H 671.355 v -90.258 h 163.79 v -43.82 H 671.355 V 190.613 h 195.567 v -43.816 h -195.567 -31.886 -12.91 v 337.652" /><path
         id="path54"
         style="fill:#ed1c24;fill-opacity:1;fill-rule:evenodd;stroke:none"
         d="m 1234.84,482.285 h 44.8 V 347.336 h 181.63 v 134.949 h 44.8 V 144.629 h -44.8 V 303.52 H 1279.64 V 144.629 h -44.8 v 337.656" /><path
         id="path56"
         style="fill:#ed1c24;fill-opacity:1;fill-rule:evenodd;stroke:none"
         d="m 338.297,440.633 v 43.816 H 592.043 V 440.633 H 487.57 V 146.797 H 442.773 V 440.633 H 338.297" /><path
         id="path58"
         style="fill:#ed1c24;fill-opacity:1;fill-rule:evenodd;stroke:none"
         d="m 1882.35,482.285 h 44.8 V 144.629 h -44.8 v 337.656" /><path
         id="path60"
         style="fill:#ed1c24;fill-opacity:1;fill-rule:evenodd;stroke:none"
         d="m 1557.21,482.285 h 120.56 c 23.6,0 59.51,-3.137 80.79,-12.543 31.61,-13.965 56.46,-40.699 67.88,-73.562 7.68,-22.09 8.85,-52.016 8.85,-75.2 V 144.629 h -49.66 v 177.348 c 0,21.375 2.45,43.238 -6.05,63.355 -7.15,16.895 -20.18,30.77 -36.47,39.023 -10.56,5.344 -47.62,7.676 -63.35,8.274 h -72.89 v -288 h -49.66 v 337.656" /><path
         id="path62"
         style="fill:#ed1c24;fill-opacity:1;fill-rule:evenodd;stroke:none"
         d="m 2136.33,448.84 c 71.03,0 128.6,-59.047 128.6,-131.887 0,-30.308 -9.97,-58.223 -26.73,-80.496 l -84.27,96.941 -35.71,-31.039 85.16,-97.964 c -19.52,-12.258 -42.48,-19.329 -67.05,-19.329 -71.02,0 -128.6,59.047 -128.6,131.887 0,72.84 57.58,131.887 128.6,131.887 z m 130.48,-245.305 40.52,-46.609 9.67,-10.711 h -63.04 l -22.18,25.512 c -27.28,-18.668 -60.12,-29.559 -95.45,-29.559 -94.72,0 -171.5,78.254 -171.5,174.785 0,96.535 76.78,174.785 171.5,174.785 94.72,0 171.5,-78.25 171.5,-174.785 0,-43.285 -15.44,-82.89 -41.02,-113.418" /><path
         id="path64"
         style="fill:#ed1c24;fill-opacity:1;fill-rule:evenodd;stroke:none"
         d="m 176.93,448.84 c 41.035,0 77.586,-19.715 101.133,-50.414 h 50.617 c -28.739,55.488 -85.903,93.312 -151.75,93.312 -94.7191,0 -171.50422,-78.25 -171.50422,-174.781 0,-96.535 76.78512,-174.789 171.50422,-174.789 93.625,0 169.718,76.469 171.457,171.469 h -42.903 v -0.004 h -163.82 v -43.817 h 155.395 c -18.5,-49.558 -65.301,-84.75 -120.129,-84.75 -71.024,0 -128.598,59.047 -128.598,131.887 0,72.84 57.574,131.887 128.598,131.887" /><path
         id="path66"
         style="fill:#ed1c24;fill-opacity:1;fill-rule:evenodd;stroke:none"
         d="m 1040.93,448.84 c 41.04,0 77.59,-19.715 101.14,-50.414 h 50.62 c -28.74,55.488 -85.91,93.312 -151.75,93.312 -94.725,0 -171.506,-78.25 -171.506,-174.781 0,-96.535 76.781,-174.789 171.506,-174.789 66.26,0 123.74,38.305 152.3,94.379 h -50.37 c -23.51,-31.305 -60.42,-51.481 -101.94,-51.481 -71.02,0 -128.594,59.047 -128.594,131.887 0,72.84 57.574,131.887 128.594,131.887" /></g></g></svg>