<?xml version="1.0" standalone="no"?>
<!DOCTYPE svg PUBLIC "-//W3C//DTD SVG 20010904//EN"
 "http://www.w3.org/TR/2001/REC-SVG-20010904/DTD/svg10.dtd">
<svg version="1.0" xmlns="http://www.w3.org/2000/svg"
 width="530.000000pt" height="277.000000pt" viewBox="0 0 530.000000 277.000000"
 preserveAspectRatio="xMidYMid meet">

<g transform="translate(0.000000,277.000000) scale(0.100000,-0.100000)"
fill="#000000" stroke="none">
<path d="M2544 1488 l-139 -373 -88 -3 c-48 -1 -87 1 -87 5 0 5 38 114 85 242
47 129 85 238 85 243 0 13 -454 10 -508 -4 -33 -8 -59 -25 -92 -57 -40 -41
-53 -68 -120 -244 l-75 -197 -87 0 c-49 0 -88 3 -88 7 0 4 109 307 178 491 3
9 -39 12 -192 12 -108 0 -196 4 -196 9 0 4 4 21 9 37 5 16 12 41 15 57 l6 27
-180 0 c-198 0 -192 -2 -165 63 8 20 15 39 15 42 0 3 -173 5 -385 5 l-385 0 0
-110 0 -110 235 0 c129 0 235 -2 235 -5 0 -5 -65 -179 -174 -464 -47 -123 -86
-226 -86 -228 0 -2 51 -2 112 -1 109 3 113 4 124 28 6 14 55 148 109 298 l98
272 83 0 c46 0 84 -3 84 -6 0 -3 -50 -138 -110 -299 -61 -162 -110 -296 -110
-300 0 -3 51 -5 113 -5 l112 0 90 241 c50 133 95 243 101 246 6 2 45 3 86 1
l76 -3 -77 -195 c-42 -107 -84 -214 -94 -237 l-17 -43 183 0 183 0 45 77 44
78 5 -47 c4 -34 14 -56 35 -78 29 -30 29 -30 141 -30 l111 0 47 50 c26 27 49
50 51 50 3 0 5 -11 5 -24 0 -13 9 -34 19 -47 18 -23 26 -24 155 -27 l136 -4
31 51 c18 28 34 50 36 48 2 -2 -4 -23 -12 -47 -8 -23 -13 -46 -10 -50 3 -5 55
-8 116 -7 l111 2 67 177 c36 98 68 178 71 178 3 0 25 -79 50 -175 l44 -175
127 0 128 0 48 61 48 62 11 -39 c19 -68 45 -78 206 -82 l140 -4 62 61 62 61
17 -39 c31 -69 63 -81 214 -81 l131 0 45 55 c42 52 46 54 52 33 4 -13 21 -38
38 -55 l31 -33 110 0 111 0 43 50 c24 28 46 50 50 50 4 0 9 -12 10 -27 1 -16
13 -38 27 -50 26 -23 29 -23 331 -23 l304 0 0 90 0 90 -214 2 -214 3 40 110
c22 61 62 170 89 244 27 74 49 135 49 137 0 2 -105 4 -233 4 -263 0 -311 -8
-366 -62 -45 -44 -44 -43 -161 -345 l-31 -83 -119 0 -119 0 50 143 c28 78 53
150 56 159 4 14 20 18 86 20 l81 3 18 60 c10 33 21 68 24 78 5 15 -3 17 -66
17 -69 0 -71 1 -64 23 4 12 20 63 35 112 15 50 30 98 34 108 7 16 0 18 -95 15
l-103 -3 -46 -127 -46 -128 -78 0 -78 0 -24 -55 c-14 -30 -27 -66 -31 -79 -6
-25 -6 -25 73 -28 l79 -3 -65 -165 -66 -165 -127 -2 c-75 0 -128 3 -128 8 0 6
41 112 91 237 50 125 94 235 97 245 4 16 -4 17 -113 15 l-117 -3 -32 -90 c-18
-49 -59 -163 -90 -252 l-58 -162 -92 2 -91 2 -27 100 -26 100 151 147 152 147
-126 1 -125 0 -119 -105 c-65 -58 -120 -103 -122 -101 -2 2 35 106 82 231 47
125 85 230 85 232 0 1 -51 3 -113 3 l-113 0 -140 -372z m-450 -125 c-14 -38
-39 -104 -55 -148 -42 -115 -36 -110 -129 -110 -44 -1 -80 3 -80 7 0 8 107
296 116 309 3 5 43 9 90 9 l84 0 -26 -67z m2516 60 c0 -5 -26 -78 -58 -163
l-59 -155 -79 0 c-43 -1 -82 0 -85 2 -4 2 20 75 53 163 l61 160 83 0 c46 0 84
-3 84 -7z"/>
<path d="M3415 1838 c-2 -7 -12 -40 -21 -73 -9 -33 -19 -66 -21 -72 -4 -10 23
-13 114 -13 l120 0 21 74 c12 41 22 79 22 85 0 17 -229 15 -235 -1z"/>
</g>
</svg>
