<svg xmlns="http://www.w3.org/2000/svg" width="371" height="136" viewBox="0 0 371 136" version="1.1"><path d="M 20 31 L 20 34 185.500 34 L 351 34 351 31 L 351 28 185.500 28 L 20 28 20 31 M 20 67.575 L 20 98.150 39.750 97.825 C 59.418 97.501, 59.522 97.488, 64.754 94.589 C 74.150 89.383, 78.188 81.625, 78.335 68.500 C 78.448 58.379, 76.095 51.095, 71.097 46.097 C 63.875 38.875, 56.420 37.090, 33.250 37.033 L 20 37 20 67.575 M 117 38.099 C 117 38.704, 120.600 52.242, 125 68.185 C 129.400 84.128, 133 97.358, 133 97.586 C 133 97.814, 137.708 98, 143.461 98 L 153.923 98 154.903 94.250 C 155.442 92.188, 156.858 86.225, 158.051 81 C 159.244 75.775, 160.539 71.155, 160.928 70.732 C 161.317 70.310, 163.132 76.273, 164.960 83.982 L 168.286 98 178.974 98 L 189.662 98 197.933 68.750 C 202.482 52.663, 206.271 39.050, 206.352 38.500 C 206.443 37.885, 202.265 37.500, 195.500 37.500 L 184.500 37.500 181.546 51.746 C 179.921 59.581, 178.286 65.656, 177.912 65.246 C 177.538 64.836, 176.262 60, 175.077 54.500 C 173.892 49, 172.468 42.796, 171.913 40.714 L 170.904 36.929 161.202 37.214 L 151.500 37.500 148.439 51.960 C 146.755 59.913, 145.127 65.988, 144.821 65.460 C 144.515 64.932, 143.006 58.313, 141.469 50.750 L 138.674 37 127.837 37 C 120.628 37, 117 37.368, 117 38.099 M 209.684 66.722 C 204.348 83.100, 199.986 96.838, 199.991 97.250 C 199.996 97.662, 205.111 98, 211.358 98 L 222.716 98 223.609 93.750 L 224.503 89.500 231.726 89.207 L 238.949 88.913 240.093 93.457 L 241.237 98 252.119 98 C 258.103 98, 262.998 97.662, 262.996 97.250 C 262.994 96.838, 258.792 83.225, 253.658 67 L 244.323 37.500 231.855 37.222 L 219.387 36.943 209.684 66.722 M 266 67.500 L 266 98 287 98 L 308 98 308 89 L 308 80 298.500 80 L 289 80 289 58.500 L 289 37 277.500 37 L 266 37 266 67.500 M 301 45.454 L 301 53.909 307.750 54.204 L 314.500 54.500 314.500 76.250 L 314.500 98.001 325.750 98 L 337 98 337 76 L 337 54 344 54 L 351 54 351 45.500 L 351 37 326 37 L 301 37 301 45.454 M 83 74.500 L 83 98 100 98 L 117 98 117 92 L 117 86 108.500 86 C 100.100 86, 100 85.971, 100 83.500 C 100 81.054, 100.163 81, 107.548 81 L 115.095 81 114.798 74.750 L 114.500 68.500 107.250 68.206 C 100.298 67.924, 100 67.812, 100 65.456 C 100 63.041, 100.140 63, 108.500 63 L 117 63 117 57 L 117 51 100 51 L 83 51 83 74.500 M 41.500 67.500 L 41.500 80 45.327 80 C 52.680 80, 57.371 71.805, 55.018 63.068 C 53.680 58.097, 49.879 55, 45.115 55 L 41.500 55 41.500 67.500 M 230.133 65.250 C 229.435 68.688, 228.622 72.513, 228.324 73.750 C 227.828 75.813, 228.133 76, 231.999 76 C 234.958 76, 236.072 75.627, 235.739 74.750 C 235.477 74.063, 234.682 70.237, 233.971 66.250 C 233.261 62.263, 232.392 59, 232.040 59 C 231.688 59, 230.830 61.813, 230.133 65.250 M 345.500 88.724 C 346.600 88.994, 348.175 89.729, 349 90.358 C 350.305 91.351, 350.321 91.272, 349.128 89.750 C 348.373 88.787, 346.798 88.052, 345.628 88.116 C 343.607 88.226, 343.600 88.257, 345.500 88.724 M 344 92.333 C 344 93.710, 344.597 94.667, 345.457 94.667 C 346.952 94.667, 348.461 92.128, 347.524 91.190 C 347.236 90.902, 347 91.192, 347 91.833 C 347 92.475, 346.502 93, 345.893 93 C 345.284 93, 345.045 92.325, 345.362 91.500 C 345.678 90.675, 345.501 90, 344.969 90 C 344.436 90, 344 91.050, 344 92.333 M 341.030 94.550 C 340.933 97.924, 346.865 99.177, 349.079 96.250 C 350.206 94.761, 350.194 94.687, 349.002 95.750 C 346.979 97.554, 343.266 97.286, 342.080 95.250 C 341.519 94.287, 341.047 93.972, 341.030 94.550 M 20 105 L 20 108 185.500 108 L 351 108 351 105 L 351 102 185.500 102 L 20 102 20 105" stroke="none" fill="#050504" fill-rule="evenodd"/><path d="M 0 68.003 L 0 136.005 185.750 135.753 L 371.500 135.500 371.757 67.750 L 372.014 0 186.007 0 L 0 0 0 68.003 M 0.473 68.500 C 0.473 105.900, 0.597 121.055, 0.750 102.177 C 0.902 83.299, 0.902 52.699, 0.749 34.177 C 0.597 15.655, 0.473 31.100, 0.473 68.500 M 20 31 L 20 34 185.500 34 L 351 34 351 31 L 351 28 185.500 28 L 20 28 20 31 M 20 67.575 L 20 98.150 39.750 97.825 C 59.418 97.501, 59.522 97.488, 64.754 94.589 C 74.150 89.383, 78.188 81.625, 78.335 68.500 C 78.448 58.379, 76.095 51.095, 71.097 46.097 C 63.875 38.875, 56.420 37.090, 33.250 37.033 L 20 37 20 67.575 M 117 38.099 C 117 38.704, 120.600 52.242, 125 68.185 C 129.400 84.128, 133 97.358, 133 97.586 C 133 97.814, 137.708 98, 143.461 98 L 153.923 98 154.903 94.250 C 155.442 92.188, 156.858 86.225, 158.051 81 C 159.244 75.775, 160.539 71.155, 160.928 70.732 C 161.317 70.310, 163.132 76.273, 164.960 83.982 L 168.286 98 178.974 98 L 189.662 98 197.933 68.750 C 202.482 52.663, 206.271 39.050, 206.352 38.500 C 206.443 37.885, 202.265 37.500, 195.500 37.500 L 184.500 37.500 181.546 51.746 C 179.921 59.581, 178.286 65.656, 177.912 65.246 C 177.538 64.836, 176.262 60, 175.077 54.500 C 173.892 49, 172.468 42.796, 171.913 40.714 L 170.904 36.929 161.202 37.214 L 151.500 37.500 148.439 51.960 C 146.755 59.913, 145.127 65.988, 144.821 65.460 C 144.515 64.932, 143.006 58.313, 141.469 50.750 L 138.674 37 127.837 37 C 120.628 37, 117 37.368, 117 38.099 M 209.684 66.722 C 204.348 83.100, 199.986 96.838, 199.991 97.250 C 199.996 97.662, 205.111 98, 211.358 98 L 222.716 98 223.609 93.750 L 224.503 89.500 231.726 89.207 L 238.949 88.913 240.093 93.457 L 241.237 98 252.119 98 C 258.103 98, 262.998 97.662, 262.996 97.250 C 262.994 96.838, 258.792 83.225, 253.658 67 L 244.323 37.500 231.855 37.222 L 219.387 36.943 209.684 66.722 M 266 67.500 L 266 98 287 98 L 308 98 308 89 L 308 80 298.500 80 L 289 80 289 58.500 L 289 37 277.500 37 L 266 37 266 67.500 M 301 45.454 L 301 53.909 307.750 54.204 L 314.500 54.500 314.500 76.250 L 314.500 98.001 325.750 98 L 337 98 337 76 L 337 54 344 54 L 351 54 351 45.500 L 351 37 326 37 L 301 37 301 45.454 M 83 74.500 L 83 98 100 98 L 117 98 117 92 L 117 86 108.500 86 C 100.100 86, 100 85.971, 100 83.500 C 100 81.054, 100.163 81, 107.548 81 L 115.095 81 114.798 74.750 L 114.500 68.500 107.250 68.206 C 100.298 67.924, 100 67.812, 100 65.456 C 100 63.041, 100.140 63, 108.500 63 L 117 63 117 57 L 117 51 100 51 L 83 51 83 74.500 M 41.500 67.500 L 41.500 80 45.327 80 C 52.680 80, 57.371 71.805, 55.018 63.068 C 53.680 58.097, 49.879 55, 45.115 55 L 41.500 55 41.500 67.500 M 230.133 65.250 C 229.435 68.688, 228.622 72.513, 228.324 73.750 C 227.828 75.813, 228.133 76, 231.999 76 C 234.958 76, 236.072 75.627, 235.739 74.750 C 235.477 74.063, 234.682 70.237, 233.971 66.250 C 233.261 62.263, 232.392 59, 232.040 59 C 231.688 59, 230.830 61.813, 230.133 65.250 M 345.500 88.724 C 346.600 88.994, 348.175 89.729, 349 90.358 C 350.305 91.351, 350.321 91.272, 349.128 89.750 C 348.373 88.787, 346.798 88.052, 345.628 88.116 C 343.607 88.226, 343.600 88.257, 345.500 88.724 M 344 92.333 C 344 93.710, 344.597 94.667, 345.457 94.667 C 346.952 94.667, 348.461 92.128, 347.524 91.190 C 347.236 90.902, 347 91.192, 347 91.833 C 347 92.475, 346.502 93, 345.893 93 C 345.284 93, 345.045 92.325, 345.362 91.500 C 345.678 90.675, 345.501 90, 344.969 90 C 344.436 90, 344 91.050, 344 92.333 M 341.030 94.550 C 340.933 97.924, 346.865 99.177, 349.079 96.250 C 350.206 94.761, 350.194 94.687, 349.002 95.750 C 346.979 97.554, 343.266 97.286, 342.080 95.250 C 341.519 94.287, 341.047 93.972, 341.030 94.550 M 20 105 L 20 108 185.500 108 L 351 108 351 105 L 351 102 185.500 102 L 20 102 20 105" stroke="none" fill="#f9ba33" fill-rule="evenodd"/></svg>